<?xml version="1.0" encoding="UTF-8" standalone="no"?> <!-- Created with Vectornator for iOS (http://vectornator.io/) --><!DOCTYPE svg PUBLIC "-//W3C//DTD SVG 1.1//EN" "http://www.w3.org/Graphics/SVG/1.1/DTD/svg11.dtd">
<svg height="100%" style="fill-rule:nonzero;clip-rule:evenodd;stroke-linecap:round;stroke-linejoin:round;" xmlns:xlink="http://www.w3.org/1999/xlink" xmlns="http://www.w3.org/2000/svg" xml:space="preserve" width="100%" xmlns:vectornator="http://vectornator.io" version="1.1" viewBox="0 0 1007.53 665.082">
<metadata>
<vectornator:setting key="DimensionsVisible" value="1"/>
<vectornator:setting key="PencilOnly" value="0"/>
<vectornator:setting key="SnapToPoints" value="0"/>
<vectornator:setting key="OutlineMode" value="0"/>
<vectornator:setting key="RulersVisible" value="1"/>
<vectornator:setting key="CMYKEnabledKey" value="0"/>
<vectornator:setting key="SnapToEdges" value="0"/>
<vectornator:setting key="GuidesVisible" value="1"/>
<vectornator:setting key="DisplayWhiteBackground" value="0"/>
<vectornator:setting key="doHistoryDisabled" value="0"/>
<vectornator:setting key="SnapToGuides" value="1"/>
<vectornator:setting key="TimeLapseWatermarkDisabled" value="0"/>
<vectornator:setting key="DynamicGuides" value="0"/>
<vectornator:setting key="IsolateActiveLayer" value="0"/>
<vectornator:setting key="SnapToGrid" value="0"/>
<vectornator:setting key="Units" value="Points"/>
</metadata>
<defs/>
<g id="Untitled" vectornator:layerName="Untitled">
<path d="M83.4014+188.773L105.247+188.773L105.247+188.773L105.247+217.173L105.247+217.173L83.4014+217.173L83.4014+217.173L83.4014+188.773L83.4014+188.773Z" opacity="1" fill="#2f2fa2"/>
<path d="M567.401+586.773L589.247+586.773L589.247+586.773L589.247+615.173L589.247+615.173L567.401+615.173L567.401+615.173L567.401+586.773L567.401+586.773Z" opacity="1" fill="#2f2fa2"/>
<path d="M920.155+294.512L920.155+316.358L920.155+316.358L891.755+316.358L891.755+316.358L891.755+294.512L891.755+294.512L920.155+294.512L920.155+294.512Z" opacity="1" fill="#2f2fa2"/>
<path d="M760.739+525.346C760.739+477.688+799.373+439.054+847.031+439.054C894.689+439.054+933.323+477.688+933.323+525.346C933.323+573.004+894.689+611.638+847.031+611.638C799.373+611.638+760.739+573.004+760.739+525.346Z" opacity="1" fill="#2f2e41"/>
<path d="M880.36+643.515L906.156+638.845L897.789+584.981L871.993+589.651L880.36+643.515Z" opacity="1" fill="#2f2e41"/>
<path d="M854.564+640.539L828.768+645.208L828.768+645.208L820.401+598.99L820.401+598.99L846.197+594.321L846.197+594.321L854.564+640.539L854.564+640.539Z" opacity="1" fill="#2f2e41"/>
<path d="M820.496+662.802C817.572+659.349+822.665+650.229+831.873+642.432C841.08+634.634+850.914+631.112+853.838+634.565C856.762+638.017+851.669+647.137+842.461+654.935C833.254+662.732+823.42+666.255+820.496+662.802Z" opacity="1" fill="#2f2e41"/>
<path d="M871.013+661.303C868.089+657.85+873.183+648.73+882.39+640.933C891.597+633.135+901.431+629.613+904.355+633.066C907.279+636.518+902.186+645.639+892.979+653.436C883.772+661.233+873.937+664.756+871.013+661.303Z" opacity="1" fill="#2f2e41"/>
<path d="M811.498+504.238C811.498+487.95+824.702+474.746+840.99+474.746C857.278+474.746+870.482+487.95+870.482+504.238C870.482+520.526+857.278+533.731+840.99+533.731C824.702+533.731+811.498+520.526+811.498+504.238Z" opacity="1" fill="#ffffff"/>
<path d="M819.038+493.667C819.038+488.238+823.439+483.836+828.869+483.836C834.298+483.836+838.699+488.238+838.699+493.667C838.699+499.096+834.298+503.498+828.869+503.498C823.439+503.498+819.038+499.096+819.038+493.667Z" opacity="1" fill="#3f3d56"/>
<path d="M915.104+431.469C916.401+399.522+888.868+372.463+853.606+371.031C818.344+369.599+788.707+394.335+787.409+426.282C786.111+458.229+810.623+465.487+845.885+466.92C881.147+468.352+913.806+463.416+915.104+431.469Z" opacity="1" fill="#2f2fa2"/>
<path d="M764.326+522.827C741.099+517.504+723.625+507.277+725.297+499.985C726.968+492.694+747.152+491.098+770.378+496.422C793.605+501.746+811.079+511.973+809.408+519.265C807.736+526.556+787.552+528.151+764.326+522.827Z" opacity="1" fill="#2f2e41"/>
<path d="M933.714+550.996C910.488+545.673+893.014+535.446+894.685+528.154C896.356+520.863+916.54+519.268+939.767+524.591C962.993+529.915+980.467+540.142+978.796+547.434C977.125+554.725+956.941+556.32+933.714+550.996Z" opacity="1" fill="#2f2e41"/>
<path d="M870.731+559.353C872.673+570.041+865.578+580.278+854.889+582.214C844.199+584.149+833.966+577.048+832.037+566.357C830.103+555.672+838.364+551.891+849.049+549.957C859.735+548.023+868.797+548.667+870.731+559.353Z" opacity="1" fill="#ffffff"/>
<path d="M398.526+582.508L395.526+621.508L424.526+624.508L417.526+577.508L398.526+582.508Z" opacity="1" fill="#ffb9b9"/>
<path d="M297.487+227.355L297.487+227.355C322.206+234.972+335.392+263.386+326.939+290.819L316.198+325.673L305.479+322.369L303.252+307.543L300.824+320.935L231.924+299.703L229.9+286.225L227.693+298.399L219.935+296.009L228.369+268.642C238.096+237.074+269.042+218.589+297.487+227.355Z" opacity="1" fill="#2f2e41"/>
<path d="M259.095+331.966C254.577+331.216+249.952+332.411+246.361+335.254C242.77+338.098+240.548+342.326+240.243+346.896C239.812+352.939+241.897+360.013+251.265+365.252C271.273+376.442+314.661+400.838+314.661+400.838L397.445+416.736C397.445+416.736+439.278+450.117+444.519+431.131C449.76+412.145+404.825+400.553+404.825+400.553L328.771+381.049L280.31+345.996C280.31+345.996+271.429+334.143+259.095+331.966Z" opacity="1" fill="#ffb9b9"/>
<path d="M232.636+409.747L240.956+433.196L290.881+421.093L278.021+403.695L232.636+409.747Z" opacity="1" fill="#ffb9b9"/>
<path d="M99.125+630.247L61.304+626.464L87.779+600.746L106.69+613.605L99.125+630.247Z" opacity="1" fill="#ffb9b9"/>
<path d="M257.681+274.77C257.681+257.615+271.588+243.707+288.744+243.707C305.899+243.707+319.807+257.615+319.807+274.77C319.807+291.926+305.899+305.833+288.744+305.833C271.588+305.833+257.681+291.926+257.681+274.77Z" opacity="1" fill="#ffb9b9"/>
<path d="M264.406+279.64C264.406+279.64+247.008+300.064+237.931+303.09C228.853+306.115+206.16+334.86+217.507+353.771C228.853+372.681+270.457+349.232+270.457+349.232L268.944+330.321C268.944+330.321+286.342+300.064+290.124+297.795C293.907+295.525+264.406+279.64+264.406+279.64Z" opacity="1" fill="#ffb9b9"/>
<path d="M261.381+316.162C249.816+298.748+222.988+301.864+216.334+321.681C216.215+322.034+216.102+322.392+215.994+322.757C209.943+343.181+219.02+377.976+219.02+377.976L232.636+418.824C232.636+418.824+268.188+402.182+293.907+430.17L290.124+401.426C290.124+401.426+300.714+377.22+287.099+359.822C278.433+348.75+270.381+329.712+261.381+316.162Z" opacity="1" fill="#f64c72"/>
<path d="M82.4838+624.952L80.9709+636.298C80.9709+636.298+31.0464+626.464+20.4563+635.542C9.86628+644.619+9.86628+650.67+1.54553+644.619C-1.99079+642.047+1.03115+635.786+5.67559+629.436C13.0309+619.474+22.697+611.448+33.8418+606.049C46.3257+599.937+63.5729+591.056+63.5729+588.643C63.5729+584.861+77.1887+573.514+82.4838+579.566C87.7788+585.617+97.6124+602.259+97.6124+602.259L82.4838+624.952Z" opacity="1" fill="#2f2e41"/>
<path d="M393.857+603.508C393.857+603.508+382.769+642.819+386.801+644.835C390.833+646.851+398.897+652.899+410.992+652.899C418.139+652.899+428.806+656.77+436.337+659.938C445.118+663.689+454.655+665.329+464.184+664.728C470.533+664.291+475.931+662.802+475.502+658.947C474.494+649.875+455.343+647.859+455.343+647.859L435.184+621.652C435.184+621.652+431.656+605.02+428.632+605.02C426.984+605.099+425.367+604.56+424.096+603.508L393.857+603.508Z" opacity="1" fill="#2f2e41"/>
<path d="M280.547+237.117C286.719+232.6+294.643+231.216+301.981+233.373L302.859+233.644C319.802+238.865+328.812+258.428+322.984+277.34L322.984+277.34L317.307+275.591L318.541+268.33L315.046+274.894L281.376+264.518L280.375+257.745L279.261+263.866L272.637+261.825C264.815+276.223+264.526+292.942+271.769+311.982L260.486+308.504L258.483+294.958L256.254+307.201L234.745+300.572L238.883+272.11C245.15+251.771+262.283+238.166+280.547+237.117Z" opacity="1" fill="#2f2e41"/>
<path d="M419.608+53L676.608+53L676.608+53L676.608+534L676.608+534L419.608+534L419.608+534L419.608+53L419.608+53Z" opacity="1" fill="#f2e8e8"/>
<path d="M738.608+535L418.608+535L418.608+1.52588e-05L738.608+1.52588e-05L738.608+535ZM420.608+533L736.608+533L736.608+2.00002L420.608+2.00002L420.608+533Z" opacity="1" fill="#3f3d56"/>
<path d="M44.0195+662.841L1007.53+662.841L1007.53+662.841L1007.53+665.082L1007.53+665.082L44.0195+665.082L44.0195+665.082L44.0195+662.841L44.0195+662.841Z" opacity="1" fill="#3f3d56"/>
<path d="M699.608+281L457.608+281L457.608+59L699.608+59L699.608+281ZM459.608+279L697.608+279L697.608+61L459.608+61L459.608+279Z" opacity="1" fill="#3f3d56"/>
<path d="M459.315+222.139L457.901+220.725L533.324+145.302L577.608+189.586L697.401+69.793L698.815+71.207L577.608+192.414L533.324+148.13L459.315+222.139Z" opacity="1" fill="#3f3d56"/>
<path d="M518.608+147C518.608+138.716+525.324+132+533.608+132C541.892+132+548.608+138.716+548.608+147C548.608+155.284+541.892+162+533.608+162C525.324+162+518.608+155.284+518.608+147Z" opacity="1" fill="#f64c72"/>
<path d="M563.608+188C563.608+179.716+570.324+173+578.608+173C586.892+173+593.608+179.716+593.608+188C593.608+196.284+586.892+203+578.608+203C570.324+203+563.608+196.284+563.608+188Z" opacity="1" fill="#f64c72"/>
<path d="M683.608+70C683.608+61.7157+690.324+55+698.608+55C706.892+55+713.608+61.7157+713.608+70C713.608+78.2843+706.892+85+698.608+85C690.324+85+683.608+78.2843+683.608+70Z" opacity="1" fill="#f64c72"/>
<path d="M487.608+343L669.608+343L669.608+343L669.608+361L669.608+361L487.608+361L487.608+361L487.608+343L487.608+343Z" opacity="1" fill="#2f2fa2"/>
<path d="M620.608+491L536.608+491L536.608+407L593.608+407L593.608+409L538.608+409L538.608+489L618.608+489L618.608+449L620.608+449L620.608+491Z" opacity="1" fill="#3f3d56"/>
<path d="M578.175+469.09L560.408+445.4L566.808+440.6L579.041+456.91L635.28+400.672L640.936+406.328L578.175+469.09Z" opacity="1" fill="#f64c72"/>
<path d="M294.285+432.061C294.285+432.061+276.13+407.856+239.065+422.228L232.257+441.139C232.257+441.139+192.923+472.152+214.859+519.807L213.347+590.912L207.295+611.336L97.6124+602.259L93.8303+637.054L113.498+638.567C113.498+638.567+224.693+682.44+242.091+655.209C259.489+627.977+295.798+520.564+295.798+520.564L389.979+534.667C389.979+534.667+387.223+564.142+390.249+567.924C393.274+571.706+391.762+587.591+393.274+590.617C394.787+593.643+393.526+601.508+393.526+601.508L424.775+600.476L424.775+585.348C424.775+585.348+428.557+564.924+428.557+559.629C428.557+554.334+451.25+484.742+411.916+478.691C372.581+472.639+304.875+461.562+304.875+461.562L294.285+432.061Z" opacity="1" fill="#2f2e41"/>
<path d="M258.943+313.826C257.009+308.9+253.084+305.021+248.137+303.144C243.189+301.268+237.678+301.569+232.964+303.974C226.716+307.127+220.935+313.387+221.289+325.783C222.045+352.258+223.558+409.747+223.558+409.747L256.841+501.275C256.841+501.275+248.521+562.546+270.457+556.494C292.394+550.443+277.265+499.006+277.265+499.006L251.546+412.016L257.598+343.181C257.598+343.181+264.093+327.349+258.943+313.826Z" opacity="1" fill="#ffb9b9"/>
</g>
</svg>
