<?xml version="1.0" encoding="UTF-8" standalone="no"?> <!-- Created with Vectornator for iOS (http://vectornator.io/) --><!DOCTYPE svg PUBLIC "-//W3C//DTD SVG 1.1//EN" "http://www.w3.org/Graphics/SVG/1.1/DTD/svg11.dtd">
<svg height="100%" style="fill-rule:nonzero;clip-rule:evenodd;stroke-linecap:round;stroke-linejoin:round;" xmlns:xlink="http://www.w3.org/1999/xlink" xmlns="http://www.w3.org/2000/svg" xml:space="preserve" width="100%" xmlns:vectornator="http://vectornator.io" version="1.1" viewBox="0 0 883.929 713.746">
<metadata>
<vectornator:setting key="DimensionsVisible" value="1"/>
<vectornator:setting key="PencilOnly" value="0"/>
<vectornator:setting key="SnapToPoints" value="0"/>
<vectornator:setting key="OutlineMode" value="0"/>
<vectornator:setting key="CMYKEnabledKey" value="0"/>
<vectornator:setting key="GuidesVisible" value="1"/>
<vectornator:setting key="SnapToEdges" value="0"/>
<vectornator:setting key="RulersVisible" value="1"/>
<vectornator:setting key="DisplayWhiteBackground" value="0"/>
<vectornator:setting key="doHistoryDisabled" value="0"/>
<vectornator:setting key="TimeLapseWatermarkDisabled" value="0"/>
<vectornator:setting key="SnapToGuides" value="1"/>
<vectornator:setting key="DynamicGuides" value="0"/>
<vectornator:setting key="IsolateActiveLayer" value="0"/>
<vectornator:setting key="SnapToGrid" value="0"/>
<vectornator:setting key="Units" value="Points"/>
</metadata>
<defs/>
<g id="Untitled" vectornator:layerName="Untitled">
<path d="M581.625+399.613C562.978+410.796+529.755+424.809+495.805+410.408L473.86+401.099L517.838+351.801C445.119+271.622+445.244+149.309+518.127+69.2793C591.009-10.7506+712.777-22.2848+799.389+42.6371C886.002+107.559+909.09+227.673+852.72+320.079C796.35+412.486+678.984+446.919+581.625+399.613ZM497.363+210.366C497.167+259.049+517.312+305.602+552.934+338.784L565.065+350.184L537.391+381.205C551.806+378.28+564.361+370.482+570.727+365.953L579.462+359.738L588.857+364.9C614.826+379.118+643.956+386.569+673.563+386.566C770.72+386.566+849.763+307.524+849.763+210.366C849.763+113.209+770.72+34.1662+673.563+34.1662C576.406+34.1662+497.363+113.209+497.363+210.366Z" opacity="1" fill="#2f2fa2"/>
<path d="M480.28+210.366C480.28+103.619+566.815+17.0831+673.563+17.0831C780.31+17.0831+866.846+103.619+866.846+210.366C866.846+317.114+780.31+403.65+673.563+403.65C641.075+403.697+609.104+395.517+580.631+379.873C567.27+389.379+534.676+408.341+502.476+394.682L541.236+351.234C502.29+314.743+480.218+263.737+480.28+210.366Z" opacity="1" fill="#7272ef"/>
<path d="M833.919+210.785C833.919+109.796+756.463+26.9116+657.719+18.262C663.349+17.7688+669.044+17.502+674.802+17.502C781.55+17.502+868.085+104.038+868.085+210.785C868.085+317.533+781.55+404.068+674.802+404.068C669.053+404.068+663.368+403.798+657.746+403.306C756.477+394.644+833.919+311.765+833.919+210.785Z" opacity="0.1" fill="#000000"/>
<path d="M228.163+668.125C128.627+668.172+42.6511+598.523+22.0383+501.146C1.42559+403.768+51.8058+305.256+142.823+264.967C233.84+224.678+340.636+253.616+398.862+334.344C457.088+415.072+450.842+525.542+383.888+599.193L427.866+648.492L405.92+657.801C371.97+672.201+338.748+658.189+320.101+647.005C291.443+660.898+260.01+668.119+228.163+668.125ZM228.163+281.558C131.006+281.558+51.9624+360.602+51.9624+457.758C51.9624+554.916+131.006+633.959+228.163+633.959C257.769+633.962+286.9+626.51+312.868+612.292L322.263+607.13L330.998+613.345C337.364+617.875+349.919+625.673+364.334+628.597L336.66+597.576L348.791+586.176C384.414+552.994+404.559+506.441+404.363+457.759C404.363+360.602+325.319+281.558+228.163+281.558Z" opacity="1" fill="#2f2fa2"/>
<path d="M421.446+457.758C421.446+351.011+334.91+264.475+228.162+264.475C121.415+264.475+34.8792+351.011+34.8792+457.758C34.8792+564.506+121.415+651.042+228.162+651.042C260.65+651.089+292.621+642.909+321.095+627.265C334.456+636.771+367.05+655.733+399.249+642.074L360.49+598.626C399.436+562.135+421.507+511.128+421.446+457.758Z" opacity="1" fill="#7272ef"/>
<path d="M69.0454+456.782C69.0454+355.793+146.502+272.908+245.246+264.259C239.615+263.766+233.92+263.499+228.162+263.499C121.415+263.499+34.8792+350.035+34.8792+456.782C34.8792+563.529+121.415+650.065+228.162+650.065C233.912+650.065+239.597+649.795+245.218+649.303C146.488+640.641+69.0454+557.762+69.0454+456.782Z" opacity="0.1" fill="#000000"/>
<path d="M718.938+148.96C706.292+127.592+681.272+126.596+681.272+126.596C681.272+126.596+656.892+123.479+641.252+156.023C626.675+186.356+606.556+215.644+638.013+222.745L643.695+205.06L647.214+224.062C651.693+224.384+656.186+224.461+660.674+224.292C694.362+223.204+726.445+224.61+725.412+212.521C724.038+196.451+731.106+169.521+718.938+148.96Z" opacity="1" fill="#2f2e41"/>
<path d="M636.217+336.092C635.846+338.442+635.307+340.763+634.604+343.036C633.813+345.261+632.591+347.319+631.867+349.568C629.561+356.734+632.758+364.724+637.865+370.255C642.293+375.033+648.01+378.427+654.324+380.029C658.973+381.024+663.715+381.522+668.469+381.515C681.615+381.961+695.1+382.36+707.557+378.135C711.492+376.767+715.294+375.04+718.913+372.976C720.056+372.432+721.062+371.639+721.86+370.656C722.694+369.216+723.065+367.554+722.923+365.896C722.895+360.323+721.765+354.778+722.034+349.211C722.182+346.128+722.759+343.047+722.475+339.973C721.67+332.82+716.457+326.944+709.45+325.293C705.916+324.534+702.251+324.947+698.654+325.293C689.315+326.19+679.936+326.61+670.555+326.55C660.969+326.488+651.443+325.025+641.905+324.872C639.084+324.827+639.141+325.697+638.243+328.427C637.416+330.939+636.739+333.499+636.217+336.092Z" opacity="1" fill="#2f2e41"/>
<path d="M663.42+198.478C662.96+200.89+662.462+203.39+661.012+205.373C659.345+207.653+656.626+208.956+654.832+211.139C652.131+214.424+651.976+219.046+651.965+223.299C651.955+227.216+652.034+231.395+654.219+234.646C655.774+236.667+657.704+238.368+659.903+239.657C668.095+245.179+676.948+250.799+686.826+250.981C690.919+251.056+695.307+249.999+698+246.917C699.163+245.468+700.077+243.837+700.706+242.09C703.231+235.864+704.762+229.279+705.243+222.578C705.606+219.427+705.312+216.236+704.379+213.205C703.179+209.859+700.753+207.106+699.149+203.934C697.253+200.162+696.56+195.9+697.163+191.721C697.242+191.427+697.218+191.114+697.093+190.836C696.825+190.535+696.432+190.375+696.03+190.406L676.444+188.996C674.62+188.905+672.804+188.697+671.006+188.374C669.951+188.159+667.162+186.659+666.155+187.058C664.291+187.796+663.802+196.478+663.42+198.478Z" opacity="1" fill="#a0616a"/>
<path d="M663.42+199.09C662.96+201.502+662.462+204.002+661.012+205.984C659.345+208.264+656.626+209.567+654.832+211.75C652.131+215.035+651.976+219.658+651.965+223.91C651.955+227.828+652.034+232.006+654.219+235.258C655.774+237.278+657.704+238.979+659.903+240.269C668.095+245.79+676.948+251.41+686.826+251.592C690.919+251.668+695.307+250.611+698+247.528C699.163+246.08+700.077+244.449+700.706+242.701C703.231+236.475+704.762+229.891+705.243+223.189C705.606+220.039+705.312+216.847+704.379+213.816C703.179+210.47+700.752+207.718+699.149+204.545C697.253+200.774+696.56+196.511+697.163+192.333C697.242+192.039+697.218+191.726+697.093+191.448C696.825+191.146+696.432+190.987+696.03+191.017L676.444+189.607C674.62+189.517+672.804+189.309+671.006+188.985C669.951+188.77+667.162+187.271+666.155+187.67C664.291+188.408+663.802+197.089+663.42+199.09Z" opacity="0.1" fill="#000000"/>
<path d="M653.416+172.37C653.416+156.5+666.281+143.635+682.151+143.635C698.021+143.635+710.886+156.5+710.886+172.37C710.886+188.239+698.021+201.105+682.151+201.105C666.281+201.105+653.416+188.239+653.416+172.37Z" opacity="1" fill="#a0616a"/>
<path d="M667.451+236.729C668.87+238.373+670.581+239.74+672.498+240.762C674.496+241.588+676.641+241.996+678.803+241.963C683.983+242.108+689.598+241.159+693.201+237.435C697.846+232.635+697.693+224.893+701.334+219.292C701.627+218.785+702.028+218.347+702.507+218.009C703.118+217.677+703.808+217.518+704.503+217.551C709.101+217.508+713.106+220.49+716.721+223.332C718.422+224.503+719.883+225.99+721.022+227.713C721.737+229.107+722.226+230.606+722.472+232.154C724.266+240.911+724.847+249.865+725.423+258.785C725.742+263.712+726.061+268.644+726.037+273.581C725.959+289.847+722.178+305.841+718.418+321.667C717.934+323.706+717.271+325.985+715.417+326.962C714.59+327.334+713.702+327.551+712.797+327.601C702.029+328.866+691.238+330.132+680.397+330.299C676.166+330.364+671.937+330.262+667.71+329.992C666.982+329.982+666.261+329.857+665.573+329.62C664.639+329.171+663.836+328.49+663.243+327.641C657.379+320.251+657.032+310.035+657.07+300.601C657.162+277.537+657.986+254.491+659.542+231.463C659.671+229.562+659.699+227.254+658.329+225.759C660.996+229.711+664.051+233.386+667.451+236.729Z" opacity="1" fill="#ffffff"/>
<path d="M661.364+203.55C660.393+205.307+653.238+209.669+651.857+211.125C644.139+219.261+630.053+218.955+622.994+227.669C620.51+230.734+619.22+234.586+618.271+238.416C616.929+243.832+616.212+249.739+618.461+254.846C620.624+259.76+625.178+263.157+628.27+267.547C631.665+272.367+633.192+278.219+634.655+283.93C635.735+288.146+636.824+292.468+636.403+296.8C635.925+301.726+633.541+306.237+632.134+310.981C630.726+315.726+630.483+321.377+633.738+325.106C636.128+327.846+639.878+328.932+643.463+329.543C648.053+330.233+652.683+330.636+657.324+330.749C661.421+330.93+665.937+330.966+669.087+328.339C671.573+326.266+672.653+322.903+672.793+319.67C672.932+316.437+672.26+313.232+671.838+310.024C671.402+306.698+671.234+303.342+671.093+299.991C670.463+284.951+670.377+269.903+670.835+254.844C671.066+251.714+670.913+248.568+670.378+245.476C669.5+241.447+667.323+237.847+665.506+234.146C661.875+227.175+660.231+219.341+660.753+211.498C661.303+203.439+664.817+197.299+661.364+203.55Z" opacity="1" fill="#ffffff"/>
<path d="M701.715+204.161C703.193+205.681+708.217+206.182+710.097+207.16C711.866+207.977+713.712+208.616+715.607+209.068C722.466+211.047+728.991+214.041+734.963+217.952C736.204+218.678+737.301+219.625+738.2+220.748C739.147+222.288+739.757+224.011+739.991+225.804C740.911+230.365+741.837+234.981+741.63+239.629C741.41+244.564+739.924+249.342+738.449+254.056L732.94+271.67C728.828+284.817+724.689+298.094+723.532+311.82C722.892+319.428+723.177+327.085+724.38+334.625C724.609+335.367+724.507+336.171+724.102+336.833C723.739+337.192+723.261+337.412+722.753+337.454C720.094+337.87+717.52+336.514+715.111+335.314C707.748+331.65+699.889+329.078+691.784+327.681C694.951+323.104+697.395+318.066+699.029+312.745C699.957+309.367+700.688+305.937+701.218+302.473L703.781+287.65C704.824+282.232+705.558+276.76+705.98+271.258C706.173+269.194+706.053+267.112+705.623+265.084C705.032+263.153+704.248+261.288+703.282+259.515C699.058+250.729+697.077+240.703+698.738+231.097C699.466+226.893+700.879+222.684+700.29+218.459C699.723+214.396+700.312+211.239+699.27+207.218C694.99+190.711+698.934+201.303+701.715+204.161Z" opacity="1" fill="#ffffff"/>
<path d="M622.921+241.56C620.995+245.556+617.776+248.96+616.68+253.258C616.254+255.267+616.071+257.32+616.136+259.372C615.946+262.465+616.252+265.569+617.043+268.566C617.655+270.461+618.65+272.209+619.366+274.067C620.365+276.663+620.811+279.44+620.673+282.218C620.48+286.067+619.172+289.803+619.07+293.656C618.909+299.714+621.711+305.409+624.446+310.818C625.839+307.368+628.683+304.709+632.219+303.552C635.755+302.394+639.621+302.856+642.785+304.814C643.411+304.045+643.708+303.06+643.611+302.073C643.813+295.044+644.008+288.015+644.196+280.986C644.492+270.115+644.774+259.099+642.273+248.516C641.144+243.737+639.387+238.977+636.167+235.271C634.471+233.319+628.714+228.179+625.93+230.365C624.678+231.348+624.971+234.024+624.772+235.38C624.473+237.522+623.849+239.606+622.921+241.56Z" opacity="1" fill="#ffffff"/>
<path d="M742.193+230.045C742.967+232.926+743.299+235.909+743.176+238.89C743.213+244.966+743.133+251.041+742.935+257.116C742.965+260.231+742.566+263.336+741.751+266.343C741.129+268.299+740.169+270.132+739.527+272.081C737.602+277.922+738.654+284.256+738.819+290.404C738.935+292.393+738.766+294.389+738.315+296.331C737.299+300.141+734.569+303.221+732.664+306.674C730.855+309.954+729.763+313.63+727.602+316.689C725.441+319.748+721.7+322.172+718.074+321.233C715.327+320.522+713.375+318.09+712.025+315.594C709.078+310.105+708.07+303.783+709.165+297.651C710.52+290.19+714.903+283.571+716.483+276.154C718.654+265.969+715.355+255.459+715.453+245.047C715.409+243.414+715.63+241.786+716.109+240.225C716.938+237.846+718.718+235.947+720.363+234.039C722.419+231.655+724.328+229.149+726.081+226.535C727.259+224.778+728.858+220.261+730.946+219.886C735.607+219.047+741.036+226.444+742.193+230.045Z" opacity="1" fill="#ffffff"/>
<path d="M598.734+331.562C596.156+330.914+593.501+330.632+590.844+330.724C585.199+331.036+579.96+333.759+576.461+338.202C572.963+342.644+571.543+348.375+572.563+353.937C573.206+356.915+574.258+359.79+575.689+362.48C577.781+366.726+580.291+370.963+584.164+373.684C586.498+375.18+589.011+376.376+591.644+377.244L612.045+384.93C615.046+386.06+618.048+387.191+621.079+388.239C636.306+393.503+652.182+396.659+668.264+397.62C673.158+398.078+678.092+397.828+682.914+396.877C684.08+396.725+685.149+396.148+685.915+395.256C686.304+394.579+686.533+393.822+686.585+393.042L687.841+384.254C688.121+383.03+688.085+381.755+687.734+380.549C687.159+379.072+685.717+378.143+684.343+377.353C670.931+369.65+655.27+365.4+643.981+354.827C641.323+352.338+639.099+348.393+635.87+346.702C632.208+344.785+627.896+343.691+624.111+341.924C615.837+338.062+607.702+333.624+598.734+331.562Z" opacity="1" fill="#2f2e41"/>
<path d="M619.102+343.41C626.313+345.67+656.757+361.324+661.975+366.789C661.276+367.041+637.544+353.742+636.832+353.528C630.304+351.735+623.912+349.483+617.702+346.787C616.466+346.215+609.669+343.527+609.976+341.966C610.324+340.206+617.821+343.009+619.102+343.41Z" opacity="0.1" fill="#000000"/>
<path d="M709.062+402.178C709.472+402.208+709.878+402.088+710.205+401.841C710.496+401.468+710.625+400.994+710.563+400.526L710.529+388.553C707.086+386.912+703.235+386.387+699.455+385.881L681.817+383.524C682.223+383.578+679.06+391.12+679.545+392.127C680.399+393.902+686.932+395.475+688.775+396.313C695.184+399.226+701.844+402.429+709.062+402.178Z" opacity="1" fill="#a0616a"/>
<path d="M653.725+388.511C650.395+389.042+646.678+389.511+644.521+392.103C641.786+395.39+642.95+400.291+644.255+404.363C644.416+405.425+644.999+406.377+645.873+407.002C646.746+407.627+647.836+407.871+648.892+407.68C651.929+407.873+655.162+408.023+657.815+406.534C659.017+405.739+660.174+404.879+661.281+403.957C663.238+402.655+665.389+401.672+667.654+401.044C671.818+399.734+676.104+398.851+680.446+398.408C682.157+398.33+683.851+398.031+685.485+397.519C687.14+396.986+688.452+395.712+689.034+394.074C689.649+391.898+688.384+389.68+687.171+387.771C685.774+385.272+683.96+383.03+681.807+381.142C678.521+378.589+676.895+380.549+673.585+382.182C667.319+385.275+660.624+387.408+653.725+388.511Z" opacity="1" fill="#a0616a"/>
<path d="M645.022+391.511L623.877+385.261C621.341+384.378+618.691+383.865+616.008+383.736C613.291+383.625+610.658+384.69+608.782+386.659C607.142+388.583+606.673+391.213+606.264+393.708L605.39+399.045C604.806+401.736+604.641+404.5+604.9+407.241C605.185+410.019+606.735+412.51+609.101+413.993C612.027+415.589+615.613+414.81+618.879+414.142C625.475+412.794+632.184+412.074+638.917+411.993C641.448+411.963+644.102+411.995+646.339+410.809C648.974+409.247+650.667+406.483+650.861+403.425C651.277+398.866+649.758+392.911+645.022+391.511Z" opacity="1" fill="#2f2e41"/>
<path d="M717.374+386.065C720.115+385.584+722.535+384.026+725.161+383.107C728.858+381.813+732.865+381.813+736.782+381.827C738.222+381.695+739.67+381.985+740.948+382.661C742.673+383.81+743.116+386.109+743.409+388.161L745.179+400.541C745.653+402.851+745.702+405.227+745.324+407.555C744.804+409.849+743.241+412.061+740.964+412.653C738.199+413.371+735.488+411.605+732.878+410.445C726.352+407.545+718.767+408.286+711.964+406.118C710.648+405.855+709.508+405.04+708.834+403.88C708.601+403.193+708.518+402.463+708.59+401.741C708.707+397.761+707.867+392.327+709.065+388.524C710.143+385.104+714.314+386.065+717.374+386.065Z" opacity="1" fill="#2f2e41"/>
<path d="M762.122+326.579C766.347+325.52+770.727+325.22+775.057+325.695C778.515+326.076+782.078+327.039+784.602+329.432C787.675+332.345+788.663+336.851+788.745+341.084C788.88+349.516+786.084+357.734+780.833+364.333C779.551+366.002+778.026+367.47+776.309+368.688C774.457+369.847+772.483+370.798+770.423+371.524L724.736+389.545C712.717+394.286+700.655+399.04+688.118+402.165C687.426+402.5+686.628+402.54+685.905+402.278C685.182+402.016+684.595+401.474+684.278+400.773C680.275+395.055+676.917+388.912+674.265+382.456C674.01+382.145+673.923+381.729+674.031+381.341C674.14+380.954+674.431+380.644+674.81+380.51L707.125+361.943C709.495+360.707+711.704+359.185+713.702+357.411C715.099+356.057+716.243+354.465+717.079+352.71C717.749+351.311+717.812+348.009+718.667+346.975C719.505+345.962+722.371+345.882+723.694+345.483C725.561+344.912+727.389+344.221+729.167+343.415C736.395+340.181+742.832+335.482+749.762+331.696C753.648+329.473+757.802+327.754+762.122+326.579Z" opacity="1" fill="#2f2e41"/>
<path d="M743.802+340.445C738.25+344.615+731.062+348.448+725.559+352.728C723.681+354.188+692.376+371.789+691.933+374.126C697.067+374.991+729.767+352.114+734.446+349.832C739.125+347.549+743.272+344.33+747.382+341.134C748.429+340.32+752.868+337.872+749.861+336.962C748.168+336.45+745.053+339.612+743.802+340.445Z" opacity="0.1" fill="#000000"/>
<path d="M705.601+204.565L656.867+204.565C652.743+204.565+649.401+207.908+649.401+212.031L649.401+214.765L648.872+214.765L648.872+220.878L649.401+220.878L649.401+225.158L648.872+225.158L648.872+228.826L649.401+228.826L649.401+273.938C649.401+278.061+652.743+281.403+656.867+281.403L705.601+281.403C709.724+281.403+713.067+278.061+713.067+273.938L713.067+212.031C713.067+207.908+709.724+204.565+705.601+204.565Z" opacity="1" fill="#d0cde1"/>
<path d="M713.347+146.901L688.629+133.953L654.494+139.25L647.432+170.442L665.012+169.765L669.923+158.306L669.923+169.577L678.035+169.265L682.743+151.02L685.686+170.442L714.524+169.853L713.347+146.901Z" opacity="1" fill="#2f2e41"/>
<path d="M629.388+322.539C630.506+324.44+632.095+326.021+634.002+327.129C636.536+328.287+639.464+328.208+641.933+326.917C644.366+325.612+646.358+323.615+647.657+321.178C650.343+316.434+650.9+310.758+650.564+305.317C650.229+299.875+649.067+294.517+648.553+289.09C648.179+285.145+648.149+281.176+648.119+277.213C648.026+276.38+648.201+275.539+648.618+274.811C649.336+274.097+650.265+273.633+651.268+273.488C656.689+271.877+660.288+266.795+662.868+261.762C664.591+258.401+666.089+254.728+665.757+250.966C665.425+247.204+662.721+243.414+658.963+243.03C655.866+242.714+653.006+244.681+650.772+246.849C645.135+252.354+641.513+259.593+640.487+267.404C639.996+271.229+640.137+275.159+639.096+278.872C636.875+286.801+629.924+291.662+626.461+298.797C622.644+306.658+624.75+315.583+629.388+322.539Z" opacity="1" fill="#a0616a"/>
<path d="M731.668+292.247C730.071+295.963+727.041+298.874+723.265+300.322C720.942+301.255+718.379+301.412+715.96+300.769C713.528+300.095+711.549+298.325+710.609+295.983C710.238+294.819+710.035+293.608+710.006+292.387C709.658+287.04+709.793+281.531+711.735+276.537C712.484+274.611+713.494+272.784+714.085+270.804C714.666+268.517+714.963+266.167+714.97+263.807L715.608+249.218C715.714+248.159+715.641+247.089+715.392+246.055C714.755+243.944+712.782+242.572+710.972+241.313C706.6+238.273+702.28+234.725+700.161+229.84C699.434+228.369+699.173+226.71+699.414+225.087C700.012+222.19+702.935+220.315+705.825+219.683C709.645+218.847+713.641+219.609+716.887+221.79C720.133+223.972+722.347+227.385+723.016+231.238C723.302+232.884+723.298+234.566+723.465+236.229C723.82+239.756+724.94+243.155+725.64+246.63C727.365+255.189+726.471+264.037+728.178+272.595C729.604+279.75+734.983+284.419+731.668+292.247Z" opacity="1" fill="#a0616a"/>
<path d="M675.772+231.272C675.772+227.895+678.51+225.158+681.886+225.158C685.263+225.158+688+227.895+688+231.272C688+234.649+685.263+237.386+681.886+237.386C678.51+237.386+675.772+234.649+675.772+231.272Z" opacity="1" fill="#f64c72"/>
<path d="M0.00194931+432.969C0.00194931+423.009+8.07651+414.934+18.037+414.934C27.9975+414.934+36.072+423.009+36.072+432.969C36.072+442.93+27.9975+451.004+18.037+451.004C8.07651+451.004+0.00194931+442.93+0.00194931+432.969Z" opacity="1" fill="#2f2e41"/>
<path d="M83.411+486.51L74.327+477.68L56.086+483.346L57.838+504.467L95.344+502.725L83.822+487.069L83.411+486.51Z" opacity="1" fill="#fbbebe"/>
<path d="M34.3858+457.171C34.3858+441.067+47.4401+428.013+63.5435+428.013C79.6469+428.013+92.7012+441.067+92.7012+457.171C92.7012+473.274+79.6469+486.328+63.5435+486.328C47.4401+486.328+34.3858+473.274+34.3858+457.171Z" opacity="1" fill="#fbbebe"/>
<path d="M116.987+611.781C116.987+611.781+155.181+641.425+207.086+613.57L211.559+610.278C211.559+610.278+204.01+627.26+203.31+631.865C202.498+637.203+182.844+668.475+179.637+669.973C176.43+671.471+175.723+672.853+175.723+672.853L189.334+687.834L194.366+684.131C194.366+684.131+213.988+656.33+219.727+651.244C225.466+646.159+252.81+593.713+252.81+593.713C252.81+593.713+263.264+573.952+237.173+572.465C211.083+570.979+199.077+578.09+199.077+578.09L152.772+585.446L116.987+611.781Z" opacity="1" fill="#2f2e41"/>
<path d="M89.2157+592.495C89.2157+592.495+127.409+622.139+179.314+594.284L183.788+590.993C183.788+590.993+176.239+607.975+175.538+612.579C174.726+617.917+155.073+649.189+151.865+650.687C148.658+652.185+147.951+653.567+147.951+653.567L161.562+668.548L166.594+664.845C166.594+664.845+186.216+637.044+191.955+631.959C197.694+626.873+225.038+574.427+225.038+574.427C225.038+574.427+235.492+554.666+209.402+553.18C183.311+551.693+171.305+558.805+171.305+558.805L125.001+566.16L89.2157+592.495Z" opacity="1" fill="#2f2e41"/>
<path d="M170.983+664.067L170.735+687.557C170.735+687.557+178.147+712.297+165.385+702.601C152.623+692.905+128.669+660.809+134.033+656.085C139.397+651.361+150.033+647.168+150.645+649.163C151.258+651.158+156.04+664.647+170.983+664.067Z" opacity="1" fill="#2f2e41"/>
<path d="M196.075+679.539L199.651+699.173C199.651+699.173+209.818+718.618+197.611+712.585C185.404+706.551+160.253+683.635+163.967+678.83C167.681+674.026+175.878+668.815+176.71+670.381C177.543+671.947+183.704+682.429+196.075+679.539Z" opacity="1" fill="#2f2e41"/>
<path d="M159.24+591.892C159.24+591.892+133.277+622.204+117.515+614.841C101.753+607.477+37.266+522.193+44.6293+506.43C51.9926+490.668+54.4615+494.023+54.4615+494.023L87.7581+497.102L78.1778+481.741C78.1778+481.741+82.6509+478.449+86.9134+483.07C91.1759+487.691+108.289+499.232+114.25+515.532C120.212+531.832+137.715+531.018+137.715+531.018L159.24+591.892Z" opacity="1" fill="#ffffff"/>
<path d="M158.575+573.419L166.519+570.158C166.519+570.158+190.499+559.406+183.62+552.401C176.741+545.396+155.525+557.562+155.525+557.562L151.463+561.413L158.575+573.419Z" opacity="1" fill="#fbbebe"/>
<path d="M151.495+557.942C151.495+557.942+164.43+570.833+161.486+573.862C158.543+576.89+110.278+616.719+98.3132+603.975C86.3487+591.231+28.0559+527.246+50.7386+521.759C73.4212+516.272+79.4143+529.101+79.4143+529.101L109.358+580.331L151.495+557.942Z" opacity="1" fill="#ffffff"/>
<path d="M112.763+518.781L134.011+525.986L133.664+541.326L111.192+538.901L112.763+518.781Z" opacity="1" fill="#ffffff"/>
<path d="M131.914+565.887L109.021+579.287L82.865+539.06L108.113+572.197L131.914+565.887Z" opacity="0.2" fill="#000000"/>
<path d="M16.0337+448.718C16.0337+429.548+31.5746+414.007+50.7453+414.007C69.916+414.007+85.4569+429.548+85.4569+448.718C85.4569+467.889+69.916+483.43+50.7453+483.43C31.5746+483.43+16.0337+467.889+16.0337+448.718Z" opacity="1" fill="#2f2e41"/>
<path d="M66.1169+425.544L76.8549+425.544C88.1765+425.544+97.3546+434.722+97.3546+446.044L97.3546+446.044L97.3546+446.044L66.1169+446.044L66.1169+446.044L66.1169+425.544L66.1169+425.544Z" opacity="1" fill="#2f2e41"/>
<path d="M228.182+339.307L226.43+338.446C225.983+339.357+225.553+340.281+225.114+341.2L217.117+337.668L219.212+357.023L234.927+345.533L226.901+341.989C227.328+341.095+227.746+340.194+228.182+339.307Z" opacity="1" fill="#f64c72"/>
<path d="M265.281+272.498L266.833+273.683C269.161+270.634+271.592+267.59+274.06+264.636L272.562+263.384C270.076+266.36+267.626+269.427+265.281+272.498Z" opacity="1" fill="#f64c72"/>
<path d="M280.236+254.6L281.678+255.917C284.268+253.08+286.957+250.263+289.67+247.543L288.288+246.165C285.554+248.905+282.846+251.743+280.236+254.6Z" opacity="1" fill="#f64c72"/>
<path d="M296.7+238.092L298.021+239.53C300.853+236.929+303.778+234.36+306.713+231.894L305.458+230.399C302.501+232.883+299.554+235.472+296.7+238.092Z" opacity="1" fill="#f64c72"/>
<path d="M251.955+291.651L253.606+292.694C255.658+289.448+257.813+286.2+260.01+283.042L258.407+281.926C256.193+285.109+254.023+288.381+251.955+291.651Z" opacity="1" fill="#f64c72"/>
<path d="M314.543+223.1L315.732+224.648C318.783+222.306+321.921+220.004+325.06+217.808L323.94+216.208C320.778+218.421+317.616+220.74+314.543+223.1Z" opacity="1" fill="#f64c72"/>
<path d="M240.37+311.916L242.106+312.808C243.865+309.388+245.725+305.96+247.634+302.622L245.939+301.653C244.016+305.016+242.142+308.469+240.37+311.916Z" opacity="1" fill="#f64c72"/>
<path d="M230.674+329.616L232.41+330.508C234.169+327.088+236.029+323.661+237.938+320.323L236.243+319.353C234.319+322.717+232.446+326.169+230.674+329.616Z" opacity="1" fill="#f64c72"/>
<path d="M333.629+209.74L334.677+211.387C337.913+209.328+341.24+207.314+344.566+205.399L343.592+203.707C340.241+205.636+336.889+207.666+333.629+209.74Z" opacity="1" fill="#f64c72"/>
<path d="M465.697+170.827C469.524+170.694+473.422+170.641+477.277+170.677L477.294+168.725C473.412+168.689+469.484+168.742+465.63+168.875L465.697+170.827Z" opacity="1" fill="#f64c72"/>
<path d="M353.809+198.122L354.707+199.855C358.117+198.089+361.607+196.377+365.081+194.768L364.261+192.996C360.76+194.618+357.244+196.342+353.809+198.122Z" opacity="1" fill="#f64c72"/>
<path d="M511.895+173.261C515.703+173.8+519.547+174.431+523.319+175.137L523.678+173.218C519.878+172.507+516.005+171.87+512.167+171.327L511.895+173.261Z" opacity="1" fill="#f64c72"/>
<path d="M534.65+177.518C538.389+178.391+542.162+179.362+545.863+180.402L546.391+178.522C542.662+177.474+538.862+176.497+535.094+175.617L534.65+177.518Z" opacity="1" fill="#f64c72"/>
<path d="M556.933+183.783C560.579+184.986+564.25+186.288+567.844+187.654L568.538+185.83C564.916+184.453+561.218+183.141+557.545+181.929L556.933+183.783Z" opacity="1" fill="#f64c72"/>
<path d="M488.851+171.032C492.695+171.234+496.58+171.523+500.398+171.892L500.587+169.949C496.74+169.577+492.826+169.285+488.954+169.082L488.851+171.032Z" opacity="1" fill="#f64c72"/>
<path d="M442.388+170.702L442.626+172.64C446.431+172.172+450.305+171.781+454.14+171.48L453.988+169.533C450.123+169.837+446.22+170.23+442.388+170.702Z" opacity="1" fill="#f64c72"/>
<path d="M396.842+180.469L397.42+182.334C401.089+181.198+404.833+180.129+408.549+179.157L408.055+177.269C404.311+178.247+400.538+179.324+396.842+180.469Z" opacity="1" fill="#f64c72"/>
<path d="M374.925+188.341L375.666+190.148C379.216+188.691+382.842+187.297+386.444+186.003L385.784+184.166C382.155+185.469+378.502+186.874+374.925+188.341Z" opacity="1" fill="#f64c72"/>
<path d="M419.399+174.571L419.808+176.481C423.558+175.676+427.383+174.945+431.175+174.307L430.851+172.381C427.03+173.024+423.177+173.761+419.399+174.571Z" opacity="1" fill="#f64c72"/>
<path d="M596.975+199.725L586.064+183.602L582.228+191.498C581.3+191.084+580.376+190.66+579.448+190.259L578.672+192.051C579.578+192.443+580.474+192.854+581.374+193.255L577.556+201.115L596.975+199.725Z" opacity="1" fill="#f64c72"/>
<g opacity="1">
<path d="M130.746+449.98C134.132+449.95+136.109+447.865+136.078+444.336L135.927+427.584L159.095+427.376L159.246+444.128C159.277+447.657+161.292+449.706+164.678+449.676C168.064+449.645+170.042+447.56+170.01+444.031L169.636+402.436C169.604+398.871+167.59+396.822+164.204+396.852C160.818+396.883+158.84+398.968+158.872+402.532L159.016+418.501L135.848+418.709L135.704+402.74C135.672+399.176+133.658+397.127+130.272+397.157C126.885+397.188+124.908+399.273+124.94+402.837L125.314+444.433C125.345+447.961+127.36+450.011+130.746+449.98Z" opacity="1" fill="#ffffff"/>
<path d="M195.297+449.543C202.675+449.477+208.567+446.644+211.055+441.916C211.511+441.056+211.753+440.199+211.745+439.379C211.724+436.991+209.893+435.581+207.648+435.602C206.293+435.614+205.37+436.014+204.275+437.165C201.489+440.505+199.006+441.81+195.192+441.845C189.917+441.892+186.462+438.216+186.411+432.549L186.407+432.085L208.22+431.889C211.107+431.863+212.732+430.209+212.706+427.322C212.613+416.95+205.275+409.601+194.44+409.699C183.141+409.8+176.047+417.67+176.157+429.967C176.268+442.335+183.356+449.65+195.297+449.543ZM186.456+425.704C186.769+420.818+190.054+417.438+194.616+417.397C199.178+417.356+202.415+420.57+202.674+425.558L186.456+425.704Z" opacity="1" fill="#ffffff"/>
<path d="M223.704+449.217C226.769+449.189+228.891+447.317+228.859+443.752L228.481+401.658C228.449+398.093+226.293+396.224+223.228+396.251C220.198+396.278+218.041+398.187+218.073+401.751L218.451+443.846C218.483+447.41+220.674+449.244+223.704+449.217Z" opacity="1" fill="#ffffff"/>
<path d="M241.383+449.058C244.448+449.03+246.57+447.158+246.538+443.593L246.16+401.499C246.128+397.935+243.972+396.065+240.907+396.092C237.877+396.12+235.72+398.028+235.752+401.592L236.13+443.687C236.162+447.251+238.353+449.085+241.383+449.058Z" opacity="1" fill="#ffffff"/>
<path d="M271.145+448.862C282.694+448.758+290.006+441.314+289.893+428.732C289.781+416.328+282.229+408.91+270.787+409.013C259.346+409.116+251.929+416.704+252.04+429.072C252.152+441.618+259.597+448.966+271.145+448.862ZM271.074+440.914C265.941+440.96+262.659+436.676+262.59+429.013C262.522+421.421+265.798+417.007+270.859+416.961C275.92+416.916+279.239+421.271+279.307+428.863C279.376+436.526+276.171+440.868+271.074+440.914Z" opacity="1" fill="#ffffff"/>
<path d="M303.426+431.319C306.384+431.293+307.936+429.497+308.016+426.466L308.329+401.796C308.362+401.439+308.358+401.012+308.355+400.727C308.326+397.447+306.312+395.505+303.14+395.533C299.932+395.562+297.918+397.541+297.947+400.82C297.95+401.105+297.989+401.533+297.993+401.889L298.784+426.549C298.883+429.578+300.467+431.346+303.426+431.319ZM303.581+448.642C306.825+448.613+309.369+446.13+309.341+442.994C309.313+439.857+306.724+437.421+303.481+437.45C300.237+437.479+297.693+439.962+297.721+443.098C297.749+446.235+300.338+448.671+303.581+448.642Z" opacity="1" fill="#ffffff"/>
</g>
<g opacity="1">
<path d="M602.76+110.227L620.155+110.227C631.134+110.227+637.942+104.559+637.942+95.5057C637.942+88.6976+632.809+83.6005+625.822+83.0658L625.822+82.7806C631.276+81.9608+635.482+77.2557+635.482+71.6239C635.482+63.7465+629.423+58.7919+619.763+58.7919L602.76+58.7919C599.374+58.7919+597.378+60.8593+597.378+64.3881L597.378+104.595C597.378+108.16+599.374+110.227+602.76+110.227ZM608.143+80.1786L608.143+66.8119L616.983+66.8119C622.009+66.8119+624.896+69.1644+624.896+73.2992C624.896+77.6478+621.616+80.1786+615.878+80.1786L608.143+80.1786ZM608.143+102.207L608.143+87.2718L617.161+87.2718C623.506+87.2718+626.963+89.8383+626.963+94.6503C626.963+99.5692+623.613+102.207+617.41+102.207L608.143+102.207Z" opacity="1" fill="#ffffff"/>
<path d="M660.718+111.047C672.267+111.047+679.646+103.668+679.646+91.0858C679.646+78.6815+672.16+71.1962+660.718+71.1962C649.277+71.1962+641.791+78.7172+641.791+91.0858C641.791+103.633+649.17+111.047+660.718+111.047ZM660.718+103.098C655.586+103.098+652.342+98.785+652.342+91.1215C652.342+83.5292+655.657+79.1449+660.718+79.1449C665.78+79.1449+669.059+83.5292+669.059+91.1215C669.059+98.785+665.816+103.098+660.718+103.098Z" opacity="1" fill="#ffffff"/>
<path d="M690.446+110.975C693.511+110.975+695.65+109.122+695.65+105.557L695.65+97.8226L698.965+94.7572L708.767+107.732C710.407+110.191+711.655+110.975+713.864+110.975C716.787+110.975+718.819+109.051+718.819+106.27C718.819+104.916+718.498+103.989+717.358+102.456L706.7+88.8759L716.431+79.6796C717.928+78.2894+718.391+77.327+718.391+75.7587C718.391+73.1923+716.431+71.2318+713.758+71.2318C712.189+71.2318+711.013+71.8378+709.623+73.2992L695.793+87.1649L695.65+87.1649L695.65+63.4613C695.65+59.8968+693.511+58.0077+690.446+58.0077C687.416+58.0077+685.242+59.8968+685.242+63.4613L685.242+105.557C685.242+109.122+687.416+110.975+690.446+110.975Z" opacity="1" fill="#ffffff"/>
<path d="M732.435+93.7948C735.394+93.7948+736.962+92.0126+737.069+88.9828L737.604+64.3168C737.639+63.9603+737.639+63.5326+737.639+63.2474C737.639+59.9681+735.643+58.0077+732.471+58.0077C729.263+58.0077+727.231+59.9681+727.231+63.2474C727.231+63.5326+727.267+63.9603+727.267+64.3168L727.837+88.9828C727.908+92.0126+729.477+93.7948+732.435+93.7948ZM732.435+111.118C735.679+111.118+738.245+108.659+738.245+105.522C738.245+102.385+735.679+99.9257+732.435+99.9257C729.192+99.9257+726.625+102.385+726.625+105.522C726.625+108.659+729.192+111.118+732.435+111.118Z" opacity="1" fill="#ffffff"/>
</g>
<g opacity="1">
<path d="M525.413+905.573C529.541+905.573+531.975+903.053+531.975+898.75L531.975+852.903L544.969+852.903C548.489+852.903+550.879+850.861+550.879+847.471C550.879+844.081+548.532+842.039+544.969+842.039L505.901+842.039C502.294+842.039+499.947+844.081+499.947+847.471C499.947+850.861+502.337+852.903+505.901+852.903L518.851+852.903L518.851+898.75C518.851+903.053+521.284+905.573+525.413+905.573Z" opacity="1" fill="#ffffff"/>
<path d="M524.196+1011.96C533.192+1011.96+540.406+1008.57+543.491+1002.83C544.056+1001.79+544.36+1000.74+544.36+999.744C544.36+996.833+542.144+995.095+539.406+995.095C537.755+995.095+536.625+995.573+535.278+996.963C531.845+1001+528.803+1002.57+524.153+1002.57C517.721+1002.57+513.549+998.05+513.549+991.14L513.549+990.575L540.145+990.575C543.665+990.575+545.664+988.576+545.664+985.056C545.664+972.41+536.799+963.371+523.588+963.371C509.812+963.371+501.077+972.888+501.077+987.881C501.077+1002.96+509.638+1011.96+524.196+1011.96ZM513.68+982.796C514.114+976.843+518.156+972.758+523.718+972.758C529.281+972.758+533.192+976.712+533.452+982.796L513.68+982.796Z" opacity="1" fill="#ffffff"/>
<path d="M507.335+1118.08C509.595+1118.08+510.855+1117.34+512.593+1114.64L521.676+1101L521.936+1101L531.193+1114.86C532.627+1117.03+533.844+1118.08+536.321+1118.08C539.754+1118.08+542.361+1115.91+542.361+1112.47C542.361+1111.08+541.927+1109.86+540.971+1108.56L530.15+1093.61L540.797+1079.4C542.013+1077.84+542.492+1076.58+542.492+1075.01C542.492+1071.8+540.101+1069.62+536.538+1069.62C534.191+1069.62+532.844+1070.67+531.149+1073.32L522.632+1086.31L522.371+1086.31L513.68+1073.23C511.985+1070.54+510.638+1069.62+508.074+1069.62C504.597+1069.62+501.99+1072.01+501.99+1075.19C501.99+1076.66+502.424+1077.92+503.337+1079.14L514.201+1093.96L503.293+1108.56C502.076+1110.17+501.598+1111.39+501.598+1112.91C501.598+1115.95+503.989+1118.08+507.335+1118.08Z" opacity="1" fill="#ffffff"/>
<path d="M506.161+1211.47C506.161+1219.68+510.464+1223.9+518.938+1223.9L519.372+1223.9C524.718+1223.9+528.368+1221.98+528.368+1218.25C528.368+1215.29+526.673+1213.99+523.544+1213.64L522.719+1213.55C519.981+1213.34+518.851+1211.95+518.851+1208.64L518.851+1186.35L523.327+1186.35C526.326+1186.35+528.194+1184.48+528.194+1181.57C528.194+1178.66+526.326+1176.79+523.327+1176.79L518.851+1176.79L518.851+1171.62C518.851+1167.53+516.461+1165.01+512.506+1165.01C508.552+1165.01+506.161+1167.53+506.161+1171.62L506.161+1176.79L503.728+1176.79C500.729+1176.79+498.817+1178.61+498.817+1181.57C498.817+1184.52+500.729+1186.35+503.728+1186.35L506.161+1186.35L506.161+1211.47Z" opacity="1" fill="#ffffff"/>
</g>
</g>
</svg>
