<?xml version="1.0" encoding="UTF-8" standalone="no"?> <!-- Created with Vectornator for iOS (http://vectornator.io/) --><!DOCTYPE svg PUBLIC "-//W3C//DTD SVG 1.1//EN" "http://www.w3.org/Graphics/SVG/1.1/DTD/svg11.dtd">
<svg height="100%" style="fill-rule:nonzero;clip-rule:evenodd;stroke-linecap:round;stroke-linejoin:round;" xmlns:xlink="http://www.w3.org/1999/xlink" xmlns="http://www.w3.org/2000/svg" xml:space="preserve" width="100%" xmlns:vectornator="http://vectornator.io" version="1.1" viewBox="0 0 862 703.19">
<metadata>
<vectornator:setting key="DimensionsVisible" value="1"/>
<vectornator:setting key="PencilOnly" value="0"/>
<vectornator:setting key="SnapToPoints" value="0"/>
<vectornator:setting key="OutlineMode" value="0"/>
<vectornator:setting key="GuidesVisible" value="1"/>
<vectornator:setting key="RulersVisible" value="1"/>
<vectornator:setting key="CMYKEnabledKey" value="0"/>
<vectornator:setting key="SnapToEdges" value="0"/>
<vectornator:setting key="DisplayWhiteBackground" value="0"/>
<vectornator:setting key="doHistoryDisabled" value="0"/>
<vectornator:setting key="TimeLapseWatermarkDisabled" value="0"/>
<vectornator:setting key="SnapToGuides" value="1"/>
<vectornator:setting key="Units" value="Points"/>
<vectornator:setting key="SnapToGrid" value="0"/>
<vectornator:setting key="IsolateActiveLayer" value="0"/>
<vectornator:setting key="DynamicGuides" value="0"/>
</metadata>
<defs>
<linearGradient y1="449.06" id="LinearGradient" x1="232.86" y2="19.38" x2="232.86" gradientUnits="userSpaceOnUse" gradientTransform="matrix(1 0 0 1 0 0)">
<stop stop-color="#808080" offset="0"/>
<stop stop-color="#808080" offset="0.54"/>
<stop stop-color="#808080" offset="1"/>
</linearGradient>
<linearGradient y1="548.35" id="LinearGradient_2" x1="303.14" y2="118.67" x2="303.14" gradientUnits="userSpaceOnUse" gradientTransform="matrix(1 0 0 1 0 0)">
<stop stop-color="#808080" offset="0"/>
<stop stop-color="#808080" offset="0.54"/>
<stop stop-color="#808080" offset="1"/>
</linearGradient>
<linearGradient y1="703.19" id="LinearGradient_3" x1="730.3" y2="444.62" x2="730.3" gradientUnits="userSpaceOnUse" gradientTransform="matrix(1 0 0 1 0 0)">
<stop stop-color="#808080" offset="0"/>
<stop stop-color="#808080" offset="0.54"/>
<stop stop-color="#808080" offset="1"/>
</linearGradient>
<linearGradient y1="258.57" id="LinearGradient_4" x1="732.71" y2="0" x2="732.71" gradientUnits="userSpaceOnUse" gradientTransform="matrix(1 0 0 1 0 0)">
<stop stop-color="#808080" offset="0"/>
<stop stop-color="#808080" offset="0.54"/>
<stop stop-color="#808080" offset="1"/>
</linearGradient>
</defs>
<g id="Untitled" vectornator:layerName="Untitled">
<path d="M4.5+19.38L461.21+19.38C463.695+19.38+465.71+21.3947+465.71+23.88L465.71+444.56C465.71+447.045+463.695+449.06+461.21+449.06L4.5+449.06C2.01472+449.06+4.00413e-07+447.045+2.51457e-08+444.56L2.51457e-08+23.88C-4.90341e-07+21.3947+2.01472+19.38+4.5+19.38Z" opacity="0.25" fill="url(#LinearGradient)"/>
<path d="M10.18+22.71L456.15+22.71C458.635+22.71+460.65+24.7247+460.65+27.21L460.65+437.47C460.65+439.955+458.635+441.97+456.15+441.97L10.18+441.97C7.69472+441.97+5.68+439.955+5.68+437.47L5.68+27.21C5.68+24.7247+7.69472+22.71+10.18+22.71Z" opacity="1" fill="#f5f5f5"/>
<path d="M45.25+91.77L112.98+91.77C115.465+91.77+117.48+93.7847+117.48+96.27L117.48+156.33C117.48+158.815+115.465+160.83+112.98+160.83L45.25+160.83C42.7647+160.83+40.75+158.815+40.75+156.33L40.75+96.27C40.75+93.7847+42.7647+91.77+45.25+91.77Z" opacity="1" fill="#2f2fa2"/>
<path d="M143.93+91.77L442.07+91.77C443.97+91.77+445.51+93.3101+445.51+95.21L445.51+96C445.51+97.8999+443.97+99.44+442.07+99.44L143.93+99.44C142.03+99.44+140.49+97.8999+140.49+96L140.49+95.21C140.49+93.3101+142.03+91.77+143.93+91.77Z" opacity="1" fill="#e0e0e0"/>
<path d="M143.93+114.79L442.07+114.79C443.97+114.79+445.51+116.33+445.51+118.23L445.51+119.02C445.51+120.92+443.97+122.46+442.07+122.46L143.93+122.46C142.03+122.46+140.49+120.92+140.49+119.02L140.49+118.23C140.49+116.33+142.03+114.79+143.93+114.79Z" opacity="1" fill="#e0e0e0"/>
<path d="M36.51+198.34L442.07+198.34C443.97+198.34+445.51+199.88+445.51+201.78L445.51+202.57C445.51+204.47+443.97+206.01+442.07+206.01L36.51+206.01C34.6101+206.01+33.07+204.47+33.07+202.57L33.07+201.78C33.07+199.88+34.6101+198.34+36.51+198.34Z" opacity="1" fill="#e0e0e0"/>
<path d="M36.51+221.35L442.07+221.35C443.97+221.35+445.51+222.89+445.51+224.79L445.51+225.58C445.51+227.48+443.97+229.02+442.07+229.02L36.51+229.02C34.6101+229.02+33.07+227.48+33.07+225.58L33.07+224.79C33.07+222.89+34.6101+221.35+36.51+221.35Z" opacity="1" fill="#e0e0e0"/>
<path d="M36.51+252.05L442.07+252.05C443.97+252.05+445.51+253.59+445.51+255.49L445.51+256.28C445.51+258.18+443.97+259.72+442.07+259.72L36.51+259.72C34.6101+259.72+33.07+258.18+33.07+256.28L33.07+255.49C33.07+253.59+34.6101+252.05+36.51+252.05Z" opacity="1" fill="#e0e0e0"/>
<path d="M36.51+275.06L267.49+275.06C269.39+275.06+270.93+276.6+270.93+278.5L270.93+279.29C270.93+281.19+269.39+282.73+267.49+282.73L36.51+282.73C34.6101+282.73+33.07+281.19+33.07+279.29L33.07+278.5C33.07+276.6+34.6101+275.06+36.51+275.06Z" opacity="1" fill="#e0e0e0"/>
<path d="M36.51+305.68L442.07+305.68C443.97+305.68+445.51+307.22+445.51+309.12L445.51+309.91C445.51+311.81+443.97+313.35+442.07+313.35L36.51+313.35C34.6101+313.35+33.07+311.81+33.07+309.91L33.07+309.12C33.07+307.22+34.6101+305.68+36.51+305.68Z" opacity="1" fill="#e0e0e0"/>
<path d="M36.51+328.7L442.07+328.7C443.97+328.7+445.51+330.24+445.51+332.14L445.51+332.93C445.51+334.83+443.97+336.37+442.07+336.37L36.51+336.37C34.6101+336.37+33.07+334.83+33.07+332.93L33.07+332.14C33.07+330.24+34.6101+328.7+36.51+328.7Z" opacity="1" fill="#e0e0e0"/>
<path d="M36.51+359.39L442.07+359.39C443.97+359.39+445.51+360.93+445.51+362.83L445.51+363.62C445.51+365.52+443.97+367.06+442.07+367.06L36.51+367.06C34.6101+367.06+33.07+365.52+33.07+363.62L33.07+362.83C33.07+360.93+34.6101+359.39+36.51+359.39Z" opacity="1" fill="#e0e0e0"/>
<path d="M36.51+382.41L267.49+382.41C269.39+382.41+270.93+383.95+270.93+385.85L270.93+386.64C270.93+388.54+269.39+390.08+267.49+390.08L36.51+390.08C34.6101+390.08+33.07+388.54+33.07+386.64L33.07+385.85C33.07+383.95+34.6101+382.41+36.51+382.41Z" opacity="1" fill="#e0e0e0"/>
<path d="M74.79+118.67L531.5+118.67C533.985+118.67+536+120.685+536+123.17L536+543.85C536+546.335+533.985+548.35+531.5+548.35L74.79+548.35C72.3047+548.35+70.29+546.335+70.29+543.85L70.29+123.17C70.29+120.685+72.3047+118.67+74.79+118.67Z" opacity="0.25" fill="url(#LinearGradient_2)"/>
<path d="M80.47+122L526.44+122C528.925+122+530.94+124.015+530.94+126.5L530.94+536.76C530.94+539.245+528.925+541.26+526.44+541.26L80.47+541.26C77.9847+541.26+75.97+539.245+75.97+536.76L75.97+126.5C75.97+124.015+77.9847+122+80.47+122Z" opacity="1" fill="#ffffff"/>
<path d="M115.53+191.06L183.26+191.06C185.745+191.06+187.76+193.075+187.76+195.56L187.76+255.62C187.76+258.105+185.745+260.12+183.26+260.12L115.53+260.12C113.045+260.12+111.03+258.105+111.03+255.62L111.03+195.56C111.03+193.075+113.045+191.06+115.53+191.06Z" opacity="1" fill="#2f2fa2"/>
<path d="M214.22+191.06L512.36+191.06C514.26+191.06+515.8+192.6+515.8+194.5L515.8+195.29C515.8+197.19+514.26+198.73+512.36+198.73L214.22+198.73C212.32+198.73+210.78+197.19+210.78+195.29L210.78+194.5C210.78+192.6+212.32+191.06+214.22+191.06Z" opacity="1" fill="#e0e0e0"/>
<path d="M214.22+214.08L512.36+214.08C514.26+214.08+515.8+215.62+515.8+217.52L515.8+218.31C515.8+220.21+514.26+221.75+512.36+221.75L214.22+221.75C212.32+221.75+210.78+220.21+210.78+218.31L210.78+217.52C210.78+215.62+212.32+214.08+214.22+214.08Z" opacity="1" fill="#e0e0e0"/>
<path d="M106.8+297.63L512.36+297.63C514.26+297.63+515.8+299.17+515.8+301.07L515.8+301.86C515.8+303.76+514.26+305.3+512.36+305.3L106.8+305.3C104.9+305.3+103.36+303.76+103.36+301.86L103.36+301.07C103.36+299.17+104.9+297.63+106.8+297.63Z" opacity="1" fill="#e0e0e0"/>
<path d="M106.8+320.65L512.36+320.65C514.26+320.65+515.8+322.19+515.8+324.09L515.8+324.88C515.8+326.78+514.26+328.32+512.36+328.32L106.8+328.32C104.9+328.32+103.36+326.78+103.36+324.88L103.36+324.09C103.36+322.19+104.9+320.65+106.8+320.65Z" opacity="1" fill="#e0e0e0"/>
<path d="M106.8+351.34L512.36+351.34C514.26+351.34+515.8+352.88+515.8+354.78L515.8+355.57C515.8+357.47+514.26+359.01+512.36+359.01L106.8+359.01C104.9+359.01+103.36+357.47+103.36+355.57L103.36+354.78C103.36+352.88+104.9+351.34+106.8+351.34Z" opacity="1" fill="#e0e0e0"/>
<path d="M106.8+374.36L337.78+374.36C339.68+374.36+341.22+375.9+341.22+377.8L341.22+378.59C341.22+380.49+339.68+382.03+337.78+382.03L106.8+382.03C104.9+382.03+103.36+380.49+103.36+378.59L103.36+377.8C103.36+375.9+104.9+374.36+106.8+374.36Z" opacity="1" fill="#e0e0e0"/>
<path d="M106.8+404.97L512.36+404.97C514.26+404.97+515.8+406.51+515.8+408.41L515.8+409.2C515.8+411.1+514.26+412.64+512.36+412.64L106.8+412.64C104.9+412.64+103.36+411.1+103.36+409.2L103.36+408.41C103.36+406.51+104.9+404.97+106.8+404.97Z" opacity="1" fill="#e0e0e0"/>
<path d="M106.8+427.99L512.36+427.99C514.26+427.99+515.8+429.53+515.8+431.43L515.8+432.22C515.8+434.12+514.26+435.66+512.36+435.66L106.8+435.66C104.9+435.66+103.36+434.12+103.36+432.22L103.36+431.43C103.36+429.53+104.9+427.99+106.8+427.99Z" opacity="1" fill="#e0e0e0"/>
<path d="M106.8+458.68L512.36+458.68C514.26+458.68+515.8+460.22+515.8+462.12L515.8+462.91C515.8+464.81+514.26+466.35+512.36+466.35L106.8+466.35C104.9+466.35+103.36+464.81+103.36+462.91L103.36+462.12C103.36+460.22+104.9+458.68+106.8+458.68Z" opacity="1" fill="#e0e0e0"/>
<path d="M106.8+481.7L337.78+481.7C339.68+481.7+341.22+483.24+341.22+485.14L341.22+485.93C341.22+487.83+339.68+489.37+337.78+489.37L106.8+489.37C104.9+489.37+103.36+487.83+103.36+485.93L103.36+485.14C103.36+483.24+104.9+481.7+106.8+481.7Z" opacity="1" fill="#e0e0e0"/>
<path stroke="#535461" stroke-width="1" d="M536+276.74L540.36+272.62" fill="none" stroke-linecap="butt" opacity="1" stroke-linejoin="miter"/>
<path stroke="#535461" stroke-width="1" d="M549.5+263.97L709.45+112.61" fill="none" stroke-linecap="butt" opacity="1" stroke-linejoin="miter" stroke-dasharray="12.58,12.58"/>
<path stroke="#535461" stroke-width="1" d="M714.02+108.28L718.37+104.16" fill="none" stroke-linecap="butt" opacity="1" stroke-linejoin="miter"/>
<path stroke="#535461" stroke-width="1" d="M537.63+427.99L542.1+432" fill="none" stroke-linecap="butt" opacity="1" stroke-linejoin="miter"/>
<path stroke="#535461" stroke-width="1" d="M551.36+440.31L713.39+585.77" fill="none" stroke-linecap="butt" opacity="1" stroke-linejoin="miter" stroke-dasharray="12.44,12.44"/>
<path stroke="#535461" stroke-width="1" d="M718.02+589.93L722.48+593.93" fill="none" stroke-linecap="butt" opacity="1" stroke-linejoin="miter"/>
<path d="M601.01+573.91C601.01+502.505+658.895+444.62+730.3+444.62C801.705+444.62+859.59+502.505+859.59+573.91C859.59+645.315+801.705+703.2+730.3+703.2C658.895+703.2+601.01+645.315+601.01+573.91Z" opacity="0.25" fill="url(#LinearGradient_3)"/>
<path d="M603.74+573.2C603.74+503.303+660.403+446.64+730.3+446.64C800.197+446.64+856.86+503.303+856.86+573.2C856.86+643.097+800.197+699.76+730.3+699.76C660.403+699.76+603.74+643.097+603.74+573.2Z" opacity="1" fill="#f5f5f5"/>
<path d="M800.3+584.6C800.3+631.21+769.88+683.1+732.37+683.1C694.86+683.1+664.44+631.2+664.44+584.6C664.44+538+694.86+514.33+732.37+514.33C769.88+514.33+800.3+537.98+800.3+584.6Z" opacity="1" fill="#333333"/>
<path d="M730.66+700.14C755.391+700.178+779.586+692.937+800.23+679.32C795.57+653.83+777.82+652.38+777.82+652.38L680+652.38C680+652.38+663.25+653.76+658+677.2C679.272+692.162+704.653+700.175+730.66+700.14Z" opacity="1" fill="#7272ef"/>
<path d="M709.61+621.29L748.75+621.29L748.75+621.29L748.75+654.63C748.75+664.317+740.897+672.17+731.21+672.17L727.15+672.17C717.463+672.17+709.61+664.317+709.61+654.63L709.61+621.29L709.61+621.29Z" opacity="0.1" fill="#000000"/>
<path d="M713+619.84L745.45+619.84C747.3+619.84+748.8+621.34+748.8+623.19L748.8+653.19C748.8+662.877+740.947+670.73+731.26+670.73L727.2+670.73C717.513+670.73+709.66+662.877+709.66+653.19L709.66+623.19C709.66+621.344+711.154+619.846+713+619.84Z" opacity="1" fill="#fdb797"/>
<path d="M709.68+636.08C722.294+640.794+736.18+640.833+748.82+636.19L748.82+631.38L709.68+631.38L709.68+636.08Z" opacity="0.1" fill="#000000"/>
<path d="M673.23+582.59C673.23+551.607+698.347+526.49+729.33+526.49C760.313+526.49+785.43+551.607+785.43+582.59C785.43+613.573+760.313+638.69+729.33+638.69C698.347+638.69+673.23+613.573+673.23+582.59Z" opacity="1" fill="#fdb797"/>
<path d="M669.16+580.2C669.16+574.793+671.497+570.41+674.38+570.41C677.263+570.41+679.6+574.793+679.6+580.2C679.6+585.607+677.263+589.99+674.38+589.99C671.497+589.99+669.16+585.607+669.16+580.2Z" opacity="1" fill="#fdb797"/>
<path d="M778.76+580.2C778.76+574.793+781.097+570.41+783.98+570.41C786.863+570.41+789.2+574.793+789.2+580.2C789.2+585.607+786.863+589.99+783.98+589.99C781.097+589.99+778.76+585.607+778.76+580.2Z" opacity="1" fill="#fdb797"/>
<path d="M679.61+552.16C679.61+552.16+711.37+595.6+784.07+580.75C784.07+580.75+792.19+570.87+772.42+540.52C752.65+510.17+697.61+515.11+679.61+552.16Z" opacity="0.1" fill="#000000"/>
<path d="M679.61+551.46C679.61+551.46+711.37+594.87+784.07+580.05C784.07+580.05+792.19+570.17+772.42+539.82C752.65+509.47+697.61+514.4+679.61+551.46Z" opacity="1" fill="#333333"/>
<path d="M603.42+129.29C603.42+57.8851+661.305+0+732.71+0C804.115+0+862+57.8851+862+129.29C862+200.695+804.115+258.58+732.71+258.58C661.305+258.58+603.42+200.695+603.42+129.29Z" opacity="0.25" fill="url(#LinearGradient_4)"/>
<path d="M606.41+128.46C606.41+58.5628+663.073+1.90001+732.97+1.90001C802.867+1.90001+859.53+58.5628+859.53+128.46C859.53+198.357+802.867+255.02+732.97+255.02C663.073+255.02+606.41+198.357+606.41+128.46Z" opacity="1" fill="#f5f5f5"/>
<path d="M733.07+255.52C757.801+255.558+781.996+248.317+802.64+234.7C797.98+209.21+780.23+207.76+780.23+207.76L682.37+207.76C682.37+207.76+665.62+209.14+660.37+232.58C681.653+247.55+707.049+255.564+733.07+255.52Z" opacity="1" fill="#f64c72"/>
<path d="M670.65+125.79C670.65+92.0509+698.001+64.7+731.74+64.7C765.479+64.7+792.83+92.0509+792.83+125.79C792.83+159.529+765.479+186.88+731.74+186.88C698.001+186.88+670.65+159.529+670.65+125.79Z" opacity="1" fill="#333333"/>
<path d="M712+176.67L751.14+176.67L751.14+176.67L751.14+210C751.14+219.687+743.287+227.54+733.6+227.54L729.54+227.54C719.853+227.54+712+219.687+712+210L712+176.67C712+176.67+712+176.67+712+176.67Z" opacity="0.1" fill="#000000"/>
<path d="M715.37+175.22L747.82+175.22C749.67+175.22+751.17+176.72+751.17+178.57L751.17+208.57C751.17+218.257+743.317+226.11+733.63+226.11L729.57+226.11C724.913+226.118+720.444+224.274+717.148+220.983C713.852+217.693+712+213.227+712+208.57L712+178.57C712+177.678+712.356+176.823+712.988+176.194C713.621+175.565+714.478+175.215+715.37+175.22Z" opacity="1" fill="#fdb797"/>
<path d="M712.1+191.46C724.714+196.174+738.6+196.213+751.24+191.57L751.24+186.76L712.1+186.76L712.1+191.46Z" opacity="0.1" fill="#000000"/>
<path d="M675.64+137.97C675.64+106.987+700.757+81.87+731.74+81.87C762.723+81.87+787.84+106.987+787.84+137.97C787.84+168.953+762.723+194.07+731.74+194.07C700.757+194.07+675.64+168.953+675.64+137.97Z" opacity="1" fill="#fdb797"/>
<path d="M691.78+86.94C691.78+86.94+715.42+134.94+782.12+107.06L766.59+82.71L739.06+72.83L691.78+86.94Z" opacity="0.1" fill="#000000"/>
<path d="M691.78+86.24C691.78+86.24+715.42+134.24+782.12+106.36L766.59+82L739.06+72.12L691.78+86.24Z" opacity="1" fill="#333333"/>
<path d="M691.57+82.99C693.154+78.0565+695.897+73.5745+699.57+69.92C710.57+59.01+728.7+56.71+737.98+44.27C739.001+46.0494+739.222+48.1779+738.587+50.129C737.953+52.0801+736.523+53.6716+734.65+54.51C743.53+54.45+753.84+53.67+758.87+46.35C761.407+52.2528+760.317+59.089+756.07+63.91C763.95+64.27+772.36+69.62+772.87+77.49C773.21+82.73+769.92+87.7+765.61+90.71C761.3+93.72+756.09+95.1+750.95+96.23C736+99.54+681.79+113.39+691.57+82.99Z" opacity="1" fill="#333333"/>
<path d="M670.39+137.92C670.39+132.513+672.727+128.13+675.61+128.13C678.493+128.13+680.83+132.513+680.83+137.92C680.83+143.327+678.493+147.71+675.61+147.71C672.727+147.71+670.39+143.327+670.39+137.92Z" opacity="1" fill="#fdb797"/>
<path d="M782.62+137.92C782.62+132.513+784.957+128.13+787.84+128.13C790.723+128.13+793.06+132.513+793.06+137.92C793.06+143.327+790.723+147.71+787.84+147.71C784.957+147.71+782.62+143.327+782.62+137.92Z" opacity="1" fill="#fdb797"/>
</g>
</svg>
