<?xml version="1.0" encoding="UTF-8" standalone="no"?> <!-- Created with Vectornator for iOS (http://vectornator.io/) --><!DOCTYPE svg PUBLIC "-//W3C//DTD SVG 1.1//EN" "http://www.w3.org/Graphics/SVG/1.1/DTD/svg11.dtd">
<svg height="100%" style="fill-rule:nonzero;clip-rule:evenodd;stroke-linecap:round;stroke-linejoin:round;" xmlns:xlink="http://www.w3.org/1999/xlink" xmlns="http://www.w3.org/2000/svg" xml:space="preserve" width="100%" xmlns:vectornator="http://vectornator.io" version="1.1" viewBox="0 0 1559.25 1559.25">
<metadata>
<vectornator:setting key="DimensionsVisible" value="1"/>
<vectornator:setting key="PencilOnly" value="0"/>
<vectornator:setting key="SnapToPoints" value="0"/>
<vectornator:setting key="OutlineMode" value="0"/>
<vectornator:setting key="CMYKEnabledKey" value="0"/>
<vectornator:setting key="RulersVisible" value="1"/>
<vectornator:setting key="SnapToEdges" value="0"/>
<vectornator:setting key="GuidesVisible" value="1"/>
<vectornator:setting key="DisplayWhiteBackground" value="0"/>
<vectornator:setting key="doHistoryDisabled" value="0"/>
<vectornator:setting key="SnapToGuides" value="1"/>
<vectornator:setting key="TimeLapseWatermarkDisabled" value="0"/>
<vectornator:setting key="DynamicGuides" value="0"/>
<vectornator:setting key="SnapToGrid" value="0"/>
<vectornator:setting key="Units" value="Millimeters"/>
<vectornator:setting key="IsolateActiveLayer" value="0"/>
</metadata>
<defs/>
<g id="Layer 1" vectornator:layerName="Layer 1">
<path stroke="#2f22a2" stroke-width="43.4956" d="M628.025+573.742L898.283+573.742C971.974+573.742+1031.71+639.978+1031.71+721.685L1031.71+988.253C1031.71+1069.96+971.974+1136.2+898.283+1136.2L628.025+1136.2C554.334+1136.2+494.596+1069.96+494.596+988.253L494.596+721.685C494.596+639.978+554.334+573.742+628.025+573.742Z" fill="#2f22a2" stroke-linecap="round" opacity="1" stroke-linejoin="round"/>
<path stroke="#2f22a2" stroke-width="0.320636" d="M287.785+833.682C287.785+797.216+316.043+767.655+350.901+767.655C385.76+767.655+414.018+797.216+414.018+833.682C414.018+870.147+385.76+899.708+350.901+899.708C316.043+899.708+287.785+870.147+287.785+833.682Z" fill="#2f22a2" stroke-linecap="round" opacity="1" stroke-linejoin="round"/>
<path stroke="#2f22a2" stroke-width="0.320636" d="M273.822+1422.59C266.414+1386.99+288+1351.64+322.036+1343.64C356.072+1335.64+389.67+1358.02+397.078+1393.63C404.487+1429.23+382.901+1464.58+348.865+1472.58C314.828+1480.58+281.231+1458.2+273.822+1422.59Z" fill="#2f22a2" stroke-linecap="round" opacity="1" stroke-linejoin="round"/>
<path stroke="#2f22a2" stroke-width="0.320636" d="M1073.91+527.156C1073.91+490.69+1102.17+461.129+1137.02+461.129C1171.88+461.129+1200.14+490.69+1200.14+527.156C1200.14+563.621+1171.88+593.182+1137.02+593.182C1102.17+593.182+1073.91+563.621+1073.91+527.156Z" fill="#2f22a2" stroke-linecap="round" opacity="1" stroke-linejoin="round"/>
<path stroke="#2f22a2" stroke-width="0.320636" d="M274.533+1201.19C267.124+1165.58+288.71+1130.23+322.747+1122.24C356.783+1114.24+390.381+1136.62+397.789+1172.22C405.198+1207.83+383.612+1243.18+349.575+1251.17C315.539+1259.17+281.942+1236.79+274.533+1201.19Z" fill="#2f22a2" stroke-linecap="round" opacity="1" stroke-linejoin="round"/>
<path stroke="#2f22a2" stroke-width="0.320636" d="M272.725+569.409C268.703+533.195+293.505+500.318+328.124+495.975C362.742+491.633+394.066+517.469+398.089+553.683C402.111+589.897+377.309+622.775+342.69+627.117C308.072+631.46+276.748+605.623+272.725+569.409Z" fill="#2f22a2" stroke-linecap="round" opacity="1" stroke-linejoin="round"/>
<path stroke="#2f22a2" stroke-width="0.320636" d="M41.4242+573.633C37.4017+537.419+62.2041+504.542+96.8223+500.199C131.44+495.856+162.765+521.693+166.787+557.907C170.81+594.121+146.007+626.998+111.389+631.341C76.771+635.683+45.4467+609.847+41.4242+573.633Z" fill="#2f22a2" stroke-linecap="round" opacity="1" stroke-linejoin="round"/>
<path stroke="#2f22a2" stroke-width="0.320636" d="M781.259+372.623C781.259+336.158+809.517+306.597+844.375+306.597C879.234+306.597+907.492+336.158+907.492+372.623C907.492+409.089+879.234+438.65+844.375+438.65C809.517+438.65+781.259+409.089+781.259+372.623Z" fill="#2f22a2" stroke-linecap="round" opacity="1" stroke-linejoin="round"/>
<path stroke="#2f22a2" stroke-width="0.320636" d="M1335.53+795.874C1335.53+759.409+1363.79+729.848+1398.65+729.848C1433.5+729.848+1461.76+759.409+1461.76+795.874C1461.76+832.339+1433.5+861.9+1398.65+861.9C1363.79+861.9+1335.53+832.339+1335.53+795.874Z" fill="#2f22a2" stroke-linecap="round" opacity="1" stroke-linejoin="round"/>
<path stroke="#2f22a2" stroke-width="0.320636" d="M113.139+1054.26C113.139+1017.8+141.397+988.238+176.256+988.238C211.114+988.238+239.373+1017.8+239.373+1054.26C239.373+1090.73+211.114+1120.29+176.256+1120.29C141.397+1120.29+113.139+1090.73+113.139+1054.26Z" fill="#2f22a2" stroke-linecap="round" opacity="1" stroke-linejoin="round"/>
<path stroke="#2f22a2" stroke-width="0.320636" d="M791.084+1294.63C791.084+1258.16+819.342+1228.6+854.2+1228.6C889.059+1228.6+917.317+1258.16+917.317+1294.63C917.317+1331.09+889.059+1360.65+854.2+1360.65C819.342+1360.65+791.084+1331.09+791.084+1294.63Z" fill="#2f22a2" stroke-linecap="round" opacity="1" stroke-linejoin="round"/>
<path stroke="#2f22a2" stroke-width="0.320636" d="M1084.62+788.925C1084.62+752.459+1112.88+722.898+1147.74+722.898C1182.6+722.898+1210.85+752.459+1210.85+788.925C1210.85+825.39+1182.6+854.951+1147.74+854.951C1112.88+854.951+1084.62+825.39+1084.62+788.925Z" fill="#2f22a2" stroke-linecap="round" opacity="1" stroke-linejoin="round"/>
<path stroke="#2f22a2" stroke-width="0.320636" d="M1085.01+1125.53C1085.01+1089.07+1113.27+1059.5+1148.12+1059.5C1182.98+1059.5+1211.24+1089.07+1211.24+1125.53C1211.24+1162+1182.98+1191.56+1148.12+1191.56C1113.27+1191.56+1085.01+1162+1085.01+1125.53Z" fill="#2f22a2" stroke-linecap="round" opacity="1" stroke-linejoin="round"/>
<g opacity="1">
<path d="M335.102+1235.9L334.378+1359.29" opacity="1" fill="#2f22a2"/>
<path d="M335.156+1225.94C329.655+1225.91+325.189+1230.34+325.156+1235.84C324.915+1276.97+324.648+1318.09+324.406+1359.22C324.374+1364.72+328.811+1369.22+334.312+1369.25C339.814+1369.28+344.311+1364.84+344.344+1359.34C344.585+1318.21+344.821+1277.1+345.062+1235.97C345.095+1230.47+340.657+1225.97+335.156+1225.94Z" opacity="1" fill="#2f22a2"/>
</g>
<g opacity="1">
<path d="M301.15+571.952L133.037+572.608" opacity="1" fill="#2f22a2"/>
<path d="M301.125+562C245.087+562.219+189.038+562.437+133+562.656C127.499+562.678+123.041+567.155+123.062+572.656C123.084+578.157+127.561+582.584+133.062+582.562C189.1+582.344+245.15+582.125+301.188+581.906C306.689+581.885+311.147+577.407+311.125+571.906C311.104+566.405+306.626+561.978+301.125+562Z" opacity="1" fill="#2f22a2"/>
</g>
<g opacity="1">
<path d="M182.749+844.564L179.529+1015.47" opacity="1" fill="#2f22a2"/>
<path d="M182.938+834.594C177.437+834.49+172.885+838.875+172.781+844.375C171.708+901.344+170.636+958.312+169.562+1015.28C169.459+1020.78+173.844+1025.33+179.344+1025.44C184.844+1025.54+189.396+1021.16+189.5+1015.66C190.573+958.687+191.646+901.719+192.719+844.75C192.822+839.25+188.438+834.698+182.938+834.594Z" opacity="1" fill="#2f22a2"/>
</g>
<g opacity="1">
<path d="M309.535+841.927L183.085+841.184" opacity="1" fill="#2f22a2"/>
<path d="M183.156+831.219C177.655+831.186+173.157+835.624+173.125+841.125C173.093+846.626+177.53+851.124+183.031+851.156C225.181+851.404+267.319+851.627+309.469+851.875C314.97+851.907+319.468+847.501+319.5+842C319.532+836.499+315.095+832.001+309.594+831.969C267.444+831.721+225.306+831.466+183.156+831.219Z" opacity="1" fill="#2f22a2"/>
</g>
<g opacity="1">
<path d="M1134.38+365.923L897.866+366.845" opacity="1" fill="#2f22a2"/>
<path d="M1134.34+355.969C1055.51+356.276+976.65+356.567+897.812+356.875C892.311+356.896+887.885+361.374+887.906+366.875C887.928+372.376+892.405+376.834+897.906+376.812C976.744+376.505+1055.57+376.182+1134.41+375.875C1139.91+375.854+1144.37+371.376+1144.34+365.875C1144.32+360.374+1139.84+355.947+1134.34+355.969Z" opacity="1" fill="#2f22a2"/>
</g>
<g opacity="1">
<path d="M1353.6+796.617L1199.34+792.954" opacity="1" fill="#2f22a2"/>
<path d="M1199.59+783C1194.09+782.869+1189.51+787.219+1189.38+792.719C1189.24+798.218+1193.59+802.775+1199.09+802.906C1250.51+804.127+1301.96+805.341+1353.38+806.562C1358.87+806.693+1363.43+802.343+1363.56+796.844C1363.69+791.344+1359.34+786.787+1353.84+786.656C1302.43+785.435+1251.01+784.221+1199.59+783Z" opacity="1" fill="#2f22a2"/>
</g>
<g opacity="1">
<path d="M1136.16+305.552L1134.62+460.489" opacity="1" fill="#2f22a2"/>
<path d="M1136.25+295.594C1130.75+295.539+1126.27+299.937+1126.22+305.438C1125.71+357.083+1125.17+408.73+1124.66+460.375C1124.6+465.876+1129.03+470.383+1134.53+470.438C1140.03+470.492+1144.54+466.095+1144.59+460.594C1145.11+408.948+1145.61+357.302+1146.12+305.656C1146.18+300.155+1141.75+295.648+1136.25+295.594Z" opacity="1" fill="#2f22a2"/>
</g>
<g opacity="1">
<path d="M1149.87+1308.21L913.363+1306.55" opacity="1" fill="#2f22a2"/>
<path d="M913.438+1296.44C907.854+1296.4+903.289+1300.89+903.25+1306.47C903.211+1312.05+907.698+1316.62+913.281+1316.66C992.118+1317.21+1070.98+1317.76+1149.81+1318.31C1155.4+1318.35+1159.93+1313.86+1159.97+1308.28C1160.01+1302.7+1155.52+1298.13+1149.94+1298.09C1071.1+1297.54+992.274+1296.99+913.438+1296.44Z" opacity="1" fill="#2f22a2"/>
</g>
<g opacity="1">
<path d="M1150.47+1305.04L1151.99+1189.11" opacity="1" fill="#2f22a2"/>
<path d="M1152.12+1179.19C1146.65+1179.12+1142.13+1183.5+1142.06+1188.97C1141.56+1227.61+1141.07+1266.26+1140.56+1304.91C1140.49+1310.38+1144.87+1314.87+1150.34+1314.94C1155.82+1315.01+1160.3+1310.63+1160.38+1305.16C1160.88+1266.51+1161.4+1227.89+1161.91+1189.25C1161.98+1183.78+1157.6+1179.26+1152.12+1179.19Z" opacity="1" fill="#2f22a2"/>
</g>
<path stroke="#2f22a2" stroke-width="0.320636" d="M1068.77+114.493C1068.77+78.0273+1097.03+48.4663+1131.89+48.4663C1166.75+48.4663+1195+78.0273+1195+114.493C1195+150.958+1166.75+180.519+1131.89+180.519C1097.03+180.519+1068.77+150.958+1068.77+114.493Z" fill="#2f22a2" stroke-linecap="round" opacity="1" stroke-linejoin="round"/>
<g opacity="1">
<path d="M1136.03+305.276L1135.17+172.774" opacity="1" fill="#2f22a2"/>
<path d="M1135.09+162.812C1129.59+162.848+1125.18+167.343+1125.22+172.844C1125.5+217.011+1125.78+261.177+1126.06+305.344C1126.1+310.845+1130.59+315.286+1136.09+315.25C1141.59+315.214+1146.04+310.72+1146+305.219C1145.71+261.051+1145.41+216.886+1145.12+172.719C1145.09+167.218+1140.59+162.777+1135.09+162.812Z" opacity="1" fill="#2f22a2"/>
</g>
</g>
</svg>
