<?xml version="1.0" encoding="UTF-8" standalone="no"?> <!-- Created with Vectornator for iOS (http://vectornator.io/) --><!DOCTYPE svg PUBLIC "-//W3C//DTD SVG 1.1//EN" "http://www.w3.org/Graphics/SVG/1.1/DTD/svg11.dtd">
<svg height="100%" style="fill-rule:nonzero;clip-rule:evenodd;stroke-linecap:round;stroke-linejoin:round;" xmlns:xlink="http://www.w3.org/1999/xlink" xmlns="http://www.w3.org/2000/svg" xml:space="preserve" width="100%" xmlns:vectornator="http://vectornator.io" version="1.1" viewBox="0 0 1121.81 699.082">
<metadata>
<vectornator:setting key="DimensionsVisible" value="1"/>
<vectornator:setting key="PencilOnly" value="0"/>
<vectornator:setting key="SnapToPoints" value="0"/>
<vectornator:setting key="OutlineMode" value="0"/>
<vectornator:setting key="RulersVisible" value="1"/>
<vectornator:setting key="CMYKEnabledKey" value="0"/>
<vectornator:setting key="SnapToEdges" value="0"/>
<vectornator:setting key="GuidesVisible" value="1"/>
<vectornator:setting key="DisplayWhiteBackground" value="0"/>
<vectornator:setting key="doHistoryDisabled" value="0"/>
<vectornator:setting key="TimeLapseWatermarkDisabled" value="0"/>
<vectornator:setting key="SnapToGuides" value="1"/>
<vectornator:setting key="DynamicGuides" value="0"/>
<vectornator:setting key="IsolateActiveLayer" value="0"/>
<vectornator:setting key="SnapToGrid" value="0"/>
<vectornator:setting key="Units" value="Points"/>
</metadata>
<defs/>
<g id="Untitled" vectornator:layerName="Untitled">
<path d="M598.806+367.999C598.806+227.719+712.526+114+852.806+114C993.086+114+1106.81+227.719+1106.81+367.999C1106.81+508.28+993.086+621.999+852.806+621.999C712.526+621.999+598.806+508.28+598.806+367.999Z" opacity="1" fill="#f2e8e8"/>
<path d="M40.8059+97C40.8059+43.4284+84.2343+0+137.806+0C191.378+0+234.806+43.4284+234.806+97C234.806+150.572+191.378+194+137.806+194C84.2343+194+40.8059+150.572+40.8059+97Z" opacity="1" fill="#f64c72"/>
<path d="M57.806+266.999C57.806+126.719+171.526+12.9995+311.806+12.9995C452.086+12.9995+565.806+126.719+565.806+266.999C565.806+407.28+452.086+520.999+311.806+520.999C171.526+520.999+57.806+407.28+57.806+266.999Z" opacity="1" fill="#f2e8e8"/>
<path d="M20.8059+520C20.8059+511.716+145.719+505+299.806+505C453.893+505+578.806+511.716+578.806+520C578.806+528.284+453.893+535+299.806+535C145.719+535+20.8059+528.284+20.8059+520Z" opacity="1" fill="#99738e"/>
<path d="M34.806+520.517C34.806+514.804+128.378+510.172+243.806+510.172C359.233+510.172+452.806+514.804+452.806+520.517C452.806+526.231+359.233+530.862+243.806+530.862C128.378+530.862+34.806+526.231+34.806+520.517Z" opacity="0.1" fill="#000000"/>
<path d="M563.806+624.5C563.806+615.387+688.719+608+842.806+608C996.893+608+1121.81+615.387+1121.81+624.5C1121.81+633.613+996.893+641+842.806+641C688.719+641+563.806+633.613+563.806+624.5Z" opacity="1" fill="#99738e"/>
<path d="M577.806+625.069C577.806+618.784+671.378+613.69+786.806+613.69C902.233+613.69+995.806+618.784+995.806+625.069C995.806+631.354+902.233+636.448+786.806+636.448C671.378+636.448+577.806+631.354+577.806+625.069Z" opacity="0.1" fill="#000000"/>
<path d="M222.859+586C222.859+581.029+302.572+577+400.903+577C499.234+577+578.946+581.029+578.946+586C578.946+590.971+499.234+595+400.903+595C302.572+595+222.859+590.971+222.859+586Z" opacity="1" fill="#99738e"/>
<path d="M0+556C0+553.602+38.4601+551.658+85.903+551.658C133.346+551.658+171.806+553.602+171.806+556C171.806+558.398+133.346+560.342+85.903+560.342C38.4601+560.342+0+558.398+0+556Z" opacity="1" fill="#99738e"/>
<path d="M793.048+691C793.048+686.537+864.628+682.918+952.927+682.918C1041.23+682.918+1112.81+686.537+1112.81+691C1112.81+695.463+1041.23+699.082+952.927+699.082C864.628+699.082+793.048+695.463+793.048+691Z" opacity="1" fill="#99738e"/>
<path d="M615.806+433L935.806+433L935.806+433L935.806+623L935.806+623L615.806+623L615.806+623L615.806+433L615.806+433Z" opacity="1" fill="#99738e"/>
<path d="M646.806+530C646.806+490.235+679.041+458+718.806+458C758.57+458+790.806+490.235+790.806+530C790.806+569.765+758.57+602+718.806+602C679.041+602+646.806+569.765+646.806+530Z" opacity="1" fill="#2f2fa2"/>
<path d="M812.806+463L836.806+463L836.806+463L836.806+487L836.806+487L812.806+487L812.806+487L812.806+463L812.806+463Z" opacity="1" fill="#2f2fa2"/>
<path d="M842.806+463L866.806+463L866.806+463L866.806+487L866.806+487L842.806+487L842.806+487L842.806+463L842.806+463Z" opacity="0.5" fill="#252587"/>
<path d="M872.806+463L896.806+463L896.806+463L896.806+487L896.806+487L872.806+487L872.806+487L872.806+463L872.806+463Z" opacity="0.2" fill="#0909b0"/>
<path d="M812.806+493L836.806+493L836.806+493L836.806+517L836.806+517L812.806+517L812.806+517L812.806+493L812.806+493Z" opacity="1" fill="#2f2e41"/>
<path d="M842.806+493L866.806+493L866.806+493L866.806+517L866.806+517L842.806+517L842.806+517L842.806+493L842.806+493Z" opacity="0.5" fill="#2f2e41"/>
<path d="M872.806+493L896.806+493L896.806+493L896.806+517L896.806+517L872.806+517L872.806+517L872.806+493L872.806+493Z" opacity="0.2" fill="#2f2e41"/>
<path d="M813.405+523.274L837.405+523.274L837.405+523.274L837.405+547.274L837.405+547.274L813.405+547.274L813.405+547.274L813.405+523.274L813.405+523.274Z" opacity="1" fill="#f64c72"/>
<path d="M843.41+522.77L867.41+522.77L867.41+522.77L867.41+546.77L867.41+546.77L843.41+546.77L843.41+546.77L843.41+522.77L843.41+522.77Z" opacity="0.5" fill="#f64c72"/>
<path d="M872.806+523L896.806+523L896.806+523L896.806+547L896.806+547L872.806+547L872.806+547L872.806+523L872.806+523Z" opacity="0.2" fill="#ff6584"/>
<path d="M716.641+457.784L716.641+601.784C756.406+601.784+790.641+569.548+790.641+529.784C790.641+490.019+756.406+457.784+716.641+457.784Z" opacity="0.5" fill="#1c1c6e"/>
<path d="M1004.31+446.5C1004.31+446.5+1046.31+465.5+1031.31+487.5C1016.31+509.5+971.306+551.5+970.306+560.5C969.306+569.5+963.306+577.5+963.306+577.5C963.306+577.5+943.306+556.5+945.306+554.5C947.306+552.5+967.306+533.5+968.306+528.5C969.306+523.5+999.306+484.5+999.306+484.5L972.306+460.5L1004.31+446.5Z" opacity="1" fill="#ffb9b9"/>
<path d="M1004.31+446.5C1004.31+446.5+1046.31+465.5+1031.31+487.5C1016.31+509.5+971.306+551.5+970.306+560.5C969.306+569.5+963.306+577.5+963.306+577.5C963.306+577.5+943.306+556.5+945.306+554.5C947.306+552.5+967.306+533.5+968.306+528.5C969.306+523.5+999.306+484.5+999.306+484.5L972.306+460.5L1004.31+446.5Z" opacity="0.1" fill="#000000"/>
<path d="M951.306+488.5C951.306+488.5+980.306+500.5+978.306+519.5C976.306+538.5+1013.31+592.5+1013.31+592.5C1013.31+592.5+1017.31+605.5+1016.31+609.5C1015.31+613.5+1042.31+612.5+1042.31+612.5L1042.31+603.5C1042.31+603.5+1021.31+567.5+1019.31+557.5C1017.31+547.5+1005.31+508.5+1005.31+508.5C1005.31+508.5+1001.31+473.5+981.306+473.5C969.503+473.5+958.388+479.057+951.306+488.5Z" opacity="1" fill="#ffb9b9"/>
<path d="M952.806+398C952.806+398+1012.81+447+1010.81+451C1008.81+455+979.806+470+974.806+471C969.806+472+934.428+398+934.428+398L952.806+398Z" opacity="1" fill="#2f2e41"/>
<path d="M952.806+398C952.806+398+1012.81+447+1010.81+451C1008.81+455+979.806+470+974.806+471C969.806+472+934.428+398+934.428+398L952.806+398Z" opacity="0.1" fill="#000000"/>
<path d="M887.806+408C887.806+408+881.806+435+897.806+446C913.806+457+940.806+500+943.806+500C946.806+500+989.806+477+987.806+473C985.806+469+963.806+434+963.806+434L956.806+397C956.806+397+895.806+395+887.806+408Z" opacity="1" fill="#2f2e41"/>
<path d="M952.806+320L961.806+378L977.806+419C977.806+419+1001.81+444+987.806+446C973.806+448+965.806+419+965.806+419L952.806+395L952.806+320Z" opacity="1" fill="#ffb9b9"/>
<path d="M952.806+320L961.806+378L977.806+419C977.806+419+1001.81+444+987.806+446C973.806+448+965.806+419+965.806+419L952.806+395L952.806+320Z" opacity="0.1" fill="#000000"/>
<path d="M919.306+255.5C919.306+255.5+919.306+276.5+912.306+278.5C905.306+280.5+940.306+307.5+940.306+307.5C940.306+307.5+936.306+272.5+950.306+263.5L919.306+255.5Z" opacity="1" fill="#ffb9b9"/>
<path d="M919.306+255.5C919.306+255.5+919.306+276.5+912.306+278.5C905.306+280.5+940.306+307.5+940.306+307.5C940.306+307.5+936.306+272.5+950.306+263.5L919.306+255.5Z" opacity="0.1" fill="#000000"/>
<path d="M912.306+249.5C912.306+236.797+922.603+226.5+935.306+226.5C948.009+226.5+958.306+236.797+958.306+249.5C958.306+262.203+948.009+272.5+935.306+272.5C922.603+272.5+912.306+262.203+912.306+249.5Z" opacity="1" fill="#ffb9b9"/>
<path d="M936.306+297.5C936.306+297.5+915.306+271.5+912.306+272.5C909.306+273.5+887.306+295.5+885.306+302.5C883.306+309.5+879.306+359.5+882.306+369.5C885.306+379.5+885.306+405.5+884.306+407.5C883.306+409.5+877.306+414.5+883.306+414.5C889.306+414.5+910.306+399.5+924.306+402.5C938.306+405.5+957.306+401.5+958.306+399.5C959.306+397.5+957.306+345.5+958.306+341.5C959.306+337.5+956.306+317.5+955.306+313.5C954.306+309.5+954.306+293.5+944.306+289.5L940.042+289.079L939.803+298.97L936.306+297.5Z" opacity="1" fill="#2f2fa2"/>
<path d="M892.306+349.5C892.306+349.5+894.306+380.5+909.306+393.5C924.306+406.5+956.306+428.5+958.306+432.5C960.306+436.5+979.306+457.5+983.306+448.5C984.467+445.694+984.747+442.602+984.108+439.633C982.934+433.67+979.351+428.455+974.204+425.22L965.306+419.5L921.306+373.5L919.306+349.5L892.306+349.5Z" opacity="1" fill="#ffb9b9"/>
<path d="M949.806+551C949.806+551+938.306+548.5+934.306+555.5C930.306+562.5+938.306+581.5+938.306+581.5C938.306+581.5+961.306+629.5+965.306+623.5C969.306+617.5+962.306+595.5+962.306+595.5C962.306+595.5+972.306+573.5+968.306+572.5C964.306+571.5+949.806+563+949.806+551Z" opacity="1" fill="#2f2e41"/>
<path d="M1020.31+608.5C1020.31+608.5+1014.31+605.5+1013.31+608.5C1012.31+611.5+1006.31+626.5+1013.31+628.5C1020.31+630.5+1089.31+632.5+1087.31+628.5C1085.31+624.5+1074.31+619.5+1067.31+617.5C1060.31+615.5+1042.31+600.5+1042.31+600.5C1042.31+600.5+1032.31+613.5+1020.31+608.5Z" opacity="1" fill="#2f2e41"/>
<path d="M958.475+231.246C958.044+229.795+957.093+228.553+955.804+227.759C955.87+226.204+955.68+224.649+955.24+223.157C953.77+218.813+950.289+219.062+947.004+217.141C945.579+216.308+945.667+215.571+944.925+214.202C943.953+212.408+942.497+210.922+940.723+209.914C938.615+208.572+936.391+207.189+933.898+207.019C928.659+206.662+924.642+211.59+919.635+213.171C917.428+213.868+915.056+213.897+912.838+214.556C910.619+215.215+908.405+216.788+908.075+219.079C907.922+220.137+908.191+221.222+908.036+222.279C907.729+224.38+905.885+225.852+904.651+227.58C901.922+231.403+902.234+236.802+904.416+240.961C904.876+241.821+905.402+242.645+905.99+243.424C906.172+245.389+906.737+247.3+907.652+249.05C909.834+253.208+913.59+256.316+917.513+258.898C917.192+257.518+916.997+256.113+916.931+254.698C916.876+254.227+916.937+253.749+917.11+253.307C917.547+252.393+918.701+252.151+919.582+251.65C921.405+250.614+922.12+248.321+922.172+246.225C922.225+244.129+921.781+242.029+922.001+239.943C922.018+238.974+922.445+238.056+923.176+237.419C923.848+237.035+924.617+236.851+925.391+236.89C929.126+236.738+933.029+236.669+936.324+234.903C937.387+234.197+938.529+233.619+939.728+233.181C942.528+232.451+945.39+234.414+947.004+236.816C948.617+239.218+949.422+242.077+950.911+244.558C952.4+247.039+954.972+249.252+957.851+248.958C958.179+248.959+958.492+248.82+958.711+248.576C958.835+248.353+958.89+248.098+958.869+247.844L959.03+236.839C959.164+234.957+958.976+233.065+958.475+231.246Z" opacity="1" fill="#2f2e41"/>
<path d="M901.306+298.5C901.306+298.5+923.306+308.5+922.306+329.5C921.306+350.5+928.306+352.5+911.306+354.5C894.306+356.5+890.306+354.5+889.306+356.5C888.306+358.5+882.306+310.5+886.306+305.5C890.306+300.5+901.306+298.5+901.306+298.5Z" opacity="1" fill="#2f2fa2"/>
<path d="M426.806+97C426.806+79.3269+441.133+65+458.806+65C476.479+65+490.806+79.3269+490.806+97C490.806+114.673+476.479+129+458.806+129C441.133+129+426.806+114.673+426.806+97Z" opacity="1" fill="#2f2e41"/>
<path d="M480.306+447.5L462.306+496.5C462.306+496.5+447.306+508.5+456.306+512.5C465.306+516.5+483.306+508.5+483.306+508.5L497.306+472.5L495.306+447.5L480.306+447.5Z" opacity="1" fill="#2f2e41"/>
<path d="M480.306+447.5L462.306+496.5C462.306+496.5+447.306+508.5+456.306+512.5C465.306+516.5+483.306+508.5+483.306+508.5L497.306+472.5L495.306+447.5L480.306+447.5Z" opacity="0.1" fill="#000000"/>
<path d="M481.806+157L496.806+159C496.806+159+503.806+214+500.806+218C497.806+222+482.806+238+476.806+234C470.806+230+481.806+157+481.806+157Z" opacity="1" fill="#5f4c8a"/>
<path d="M338.306+257.5C338.306+257.5+317.306+266.5+313.306+267.5C309.306+268.5+303.306+278.5+310.306+280.5C317.306+282.5+344.306+262.5+344.306+262.5L338.306+257.5Z" opacity="1" fill="#a0616a"/>
<path d="M487.306+467.5L498.306+508.5C498.306+508.5+499.306+523.5+504.306+524.5C509.306+525.5+524.306+519.5+524.306+517.5C524.306+515.5+518.306+499.5+518.306+499.5C518.306+499.5+518.306+487.5+512.306+482.5C506.306+477.5+500.9+460.75+500.9+460.75L487.306+467.5Z" opacity="1" fill="#2f2e41"/>
<path d="M501.306+373.5C503.326+378.21+503.076+412.38+500.866+435.12C499.796+446.17+498.266+454.52+496.306+455.5L481.976+451.92L476.306+450.5L476.156+438.06L475.306+369.5L458.306+298.5L458.306+280.5L501.306+284.5L508.126+295.21L508.306+295.5C508.306+295.5+498.306+366.5+501.306+373.5Z" opacity="1" fill="#2f2e41"/>
<path d="M492.306+395.5C494.446+398.71+498.016+417.93+500.866+435.12C499.796+446.17+498.266+454.52+496.306+455.5L481.976+451.92C481.756+451.46+481.536+450.98+481.306+450.5C479.476+446.66+477.756+442.42+476.156+438.06L475.306+369.5L458.306+298.5L458.306+280.5L501.306+284.5L508.126+295.21L468.306+292.5L477.306+331.5L488.306+372.5C488.306+372.5+488.306+389.5+492.306+395.5Z" opacity="0.1" fill="#000000"/>
<path d="M421.306+240.5C421.306+240.5+407.306+271.5+427.306+314.5C439.682+341.259+450.696+368.628+460.306+396.5C460.306+396.5+467.306+429.5+477.306+450.5C487.306+471.5+485.306+472.5+485.306+472.5L501.306+463.5C501.306+463.5+492.306+401.5+488.306+395.5C484.306+389.5+484.306+372.5+484.306+372.5L473.306+331.5L464.306+292.5L508.306+295.5C508.306+295.5+508.306+238.5+488.306+227.5L421.306+240.5Z" opacity="1" fill="#2f2e41"/>
<path d="M437.806+112C437.806+112+437.806+128+432.806+129C427.806+130+417.806+130+414.806+135C411.806+140+437.806+206+437.806+206L464.806+189L473.806+144C473.806+144+460.806+136+460.806+132L460.806+114L437.806+112Z" opacity="1" fill="#a0616a"/>
<path d="M437.806+112C437.806+112+437.806+128+432.806+129C427.806+130+417.806+130+414.806+135C411.806+140+437.806+206+437.806+206L464.806+189L473.806+144C473.806+144+460.806+136+460.806+132L460.806+114L437.806+112Z" opacity="0.1" fill="#000000"/>
<path d="M429.306+105.5C429.306+92.2452+440.051+81.5+453.306+81.5C466.561+81.5+477.306+92.2452+477.306+105.5C477.306+118.755+466.561+129.5+453.306+129.5C440.051+129.5+429.306+118.755+429.306+105.5Z" opacity="1" fill="#a0616a"/>
<path d="M440.806+186C440.806+186+431.806+129+429.806+129C427.806+129+399.806+135+397.806+136C395.806+137+388.806+146+388.806+146L402.806+186C402.806+186+408.806+214+412.806+219C416.806+224+424.806+238+420.806+240C416.806+242+412.806+245+416.806+245C420.806+245+453.806+239+455.806+242C457.806+245+490.806+231+490.806+230C490.806+229+486.806+182+486.806+182L496.806+159L466.806+138L440.806+186Z" opacity="1" fill="#5f4c8a"/>
<path d="M398.806+141L388.806+146C388.806+146+360.806+210+358.806+211C356.806+212+346.806+231+345.806+235C344.806+239+342.806+252+339.806+254C338.197+255.093+336.527+256.094+334.806+257C334.806+257+340.806+267+343.806+267C346.806+267+356.806+253+356.806+253C356.806+253+378.806+267+384.806+256C390.806+245+405.806+175+405.806+175L398.806+141Z" opacity="1" fill="#5f4c8a"/>
<path d="M477.306+171.5C477.306+171.5+463.306+137.5+455.306+141.5C447.306+145.5+461.306+169.5+470.306+173.5L477.306+171.5Z" opacity="1" fill="#a0616a"/>
<path d="M463.306+172.5L477.336+169.328L480.306+184.5C480.306+184.5+493.306+207.5+490.306+217.5C487.306+227.5+469.306+243.5+463.306+234.5C457.306+225.5+452.306+211.5+456.306+203.5C460.306+195.5+466.306+176.5+463.306+172.5Z" opacity="0.1" fill="#000000"/>
<path d="M466.306+170.5L480.336+167.328L483.306+182.5C483.306+182.5+496.306+205.5+493.306+215.5C490.306+225.5+472.306+241.5+466.306+232.5C460.306+223.5+455.306+209.5+459.306+201.5C463.306+193.5+469.306+174.5+466.306+170.5Z" opacity="1" fill="#5f4c8a"/>
<path d="M454.927+100.914C442.924+95.291+435.378+86.0702+438.073+80.3187C440.767+74.5673+452.681+74.4631+464.685+80.0861C476.688+85.7091+484.234+94.9298+481.539+100.681C478.845+106.433+466.93+106.537+454.927+100.914Z" opacity="1" fill="#2f2e41"/>
<path d="M463.806+70C463.806+62.268+470.074+56+477.806+56C485.538+56+491.806+62.268+491.806+70C491.806+77.732+485.538+84+477.806+84C470.074+84+463.806+77.732+463.806+70Z" opacity="1" fill="#2f2e41"/>
<path d="M464.806+65C464.807+57.8494+470.197+51.8488+477.306+51.0828C471.971+50.5001+466.773+53.0181+463.923+57.5651C461.074+62.1121+461.074+67.888+463.923+72.435C466.773+76.982+471.971+79.4999+477.306+78.9172C470.197+78.1512+464.807+72.1506+464.806+65Z" opacity="1" fill="#2f2e41"/>
<path d="M64.8059+277L414.806+277L414.806+277L414.806+520L414.806+520L64.8059+520L64.8059+520L64.8059+277L64.8059+277Z" opacity="1" fill="#99738e"/>
<path d="M92.8059+301L138.806+301L138.806+301L138.806+347L138.806+347L92.8059+347L92.8059+347L92.8059+301L92.8059+301Z" opacity="1" fill="#f2e8e8"/>
<path d="M92.8059+376L138.806+376L138.806+376L138.806+422L138.806+422L92.8059+422L92.8059+422L92.8059+376L92.8059+376Z" opacity="1" fill="#2f2fa2"/>
<path d="M92.8059+451L138.806+451L138.806+451L138.806+497L138.806+497L92.8059+497L92.8059+497L92.8059+451L92.8059+451Z" opacity="1" fill="#f2e8e8"/>
<path d="M160.806+315.5L379.806+315.5L379.806+315.5L379.806+319.5L379.806+319.5L160.806+319.5L160.806+319.5L160.806+315.5L160.806+315.5Z" opacity="1" fill="#f2e8e8"/>
<path d="M160.806+328.5L228.806+328.5L228.806+328.5L228.806+332.5L228.806+332.5L160.806+332.5L160.806+332.5L160.806+328.5L160.806+328.5Z" opacity="1" fill="#f2e8e8"/>
<path d="M160.806+390.5L379.806+390.5L379.806+390.5L379.806+394.5L379.806+394.5L160.806+394.5L160.806+394.5L160.806+390.5L160.806+390.5Z" opacity="1" fill="#f2f2f2"/>
<path d="M160.806+403.5L228.806+403.5L228.806+403.5L228.806+407.5L228.806+407.5L160.806+407.5L160.806+407.5L160.806+403.5L160.806+403.5Z" opacity="1" fill="#f2f2f2"/>
<path d="M160.806+465.5L379.806+465.5L379.806+465.5L379.806+469.5L379.806+469.5L160.806+469.5L160.806+469.5L160.806+465.5L160.806+465.5Z" opacity="1" fill="#f2e8e8"/>
<path d="M160.806+478.5L228.806+478.5L228.806+478.5L228.806+482.5L228.806+482.5L160.806+482.5L160.806+482.5L160.806+478.5L160.806+478.5Z" opacity="1" fill="#f2e8e8"/>
<path d="M989.806+668.933C989.806+689.289+977.706+696.396+962.778+696.396C962.432+696.396+962.086+696.391+961.743+696.384C961.051+696.369+960.365+696.336+959.688+696.289C946.215+695.336+935.75+687.864+935.75+668.933C935.75+649.345+960.78+624.625+962.666+622.792L962.668+622.789C962.74+622.717+962.778+622.682+962.778+622.682C962.778+622.682+989.806+648.579+989.806+668.933Z" opacity="1" fill="#ee355f"/>
<path d="M961.793+693.282L971.678+679.47L961.768+694.799L961.743+696.384C961.051+696.369+960.365+696.336+959.688+696.289L960.753+675.925L960.745+675.766L960.763+675.739L960.865+673.813L950.929+658.447L960.895+672.371L960.919+672.779L961.723+657.392L953.218+641.514L961.827+654.693L962.666+622.792L962.668+622.682L962.668+622.789L962.529+647.944L970.997+637.971L962.494+650.111L962.27+663.888L970.178+650.666L962.238+665.915L962.114+673.575L973.589+655.171L962.069+676.246L961.793+693.282Z" opacity="1" fill="#3f3d56"/>
<path d="M112.806+529.933C112.806+550.289+100.706+557.396+85.7778+557.396C85.432+557.396+85.0862+557.391+84.7429+557.384C84.0513+557.369+83.3647+557.336+82.6881+557.289C69.2151+556.336+58.7495+548.864+58.7495+529.933C58.7495+510.345+83.7802+485.625+85.6658+483.792L85.6683+483.789C85.7404+483.717+85.7777+483.682+85.7777+483.682C85.7777+483.682+112.806+509.579+112.806+529.933Z" opacity="1" fill="#ee355f"/>
<path d="M84.7926+554.282L94.6785+540.47L84.7677+555.799L84.7429+557.384C84.0513+557.369+83.3647+557.336+82.6881+557.289L83.7528+536.925L83.7453+536.766L83.7627+536.739L83.8647+534.813L73.9291+519.447L83.8946+533.371L83.9195+533.779L84.723+518.392L76.2177+502.514L84.8275+515.693L85.6658+483.792L85.6683+483.682L85.6683+483.789L85.529+508.944L93.9969+498.971L85.4941+511.111L85.2703+524.888L93.1785+511.666L85.2379+526.915L85.1135+534.575L96.589+516.171L85.0688+537.246L84.7926+554.282Z" opacity="1" fill="#3f3d56"/>
</g>
</svg>
